<svg xmlns="http://www.w3.org/2000/svg" xmlns:xlink="http://www.w3.org/1999/xlink" viewBox="0 0 4752.4 1779.12"><defs><style>.cls-1{mask:url(#mask);filter:url(#luminosity-noclip-5);}.cls-2,.cls-4,.cls-6,.cls-8{mix-blend-mode:multiply;}.cls-2{fill:url(#radial-gradient);}.cls-3{mask:url(#mask-2);filter:url(#luminosity-noclip-6);}.cls-4{fill:url(#radial-gradient-2);}.cls-5{mask:url(#mask-3);filter:url(#luminosity-noclip-7);}.cls-6{fill:url(#radial-gradient-3);}.cls-7{mask:url(#mask-4);filter:url(#luminosity-noclip-8);}.cls-8{fill:url(#radial-gradient-4);}.cls-9{fill:url(#linear-gradient);}.cls-10{fill:url(#linear-gradient-2);}.cls-11{fill:url(#linear-gradient-3);}.cls-12{fill:#08cffc;}.cls-13{fill:none;}.cls-14{opacity:0.25;}.cls-15{fill:#00116b;}.cls-16{fill:#000072;}.cls-17{opacity:0.4;}.cls-18{fill:#fff;}.cls-19{fill:#021168;}.cls-20{fill:#15058f;}.cls-21{fill:#247075;}.cls-22{mask:url(#mask-5);}.cls-23{mask:url(#mask-6);}.cls-24{opacity:0.2;}.cls-25{fill:#535580;}.cls-26{fill:url(#linear-gradient-4);}.cls-27{fill:url(#linear-gradient-5);}.cls-28{fill:url(#linear-gradient-6);}.cls-29{fill:url(#linear-gradient-7);}.cls-30{fill:url(#linear-gradient-8);}.cls-31{fill:url(#linear-gradient-9);}.cls-32{fill:url(#linear-gradient-10);}.cls-33{mask:url(#mask-7);}.cls-34{mask:url(#mask-8);}.cls-35{fill:url(#linear-gradient-11);}.cls-36{fill:url(#linear-gradient-12);}.cls-37{fill:url(#linear-gradient-13);}.cls-38{fill:url(#linear-gradient-14);}.cls-39{fill:#040e15;}.cls-40{filter:url(#luminosity-noclip-4);}.cls-41{filter:url(#luminosity-noclip-3);}.cls-42{filter:url(#luminosity-noclip-2);}.cls-43{filter:url(#luminosity-noclip);}</style><filter id="luminosity-noclip" x="298.29" y="-8447.36" width="463.62" height="32766" filterUnits="userSpaceOnUse" color-interpolation-filters="sRGB"><feFlood flood-color="#fff" result="bg"/><feBlend in="SourceGraphic" in2="bg"/></filter><mask id="mask" x="298.29" y="-8447.36" width="463.62" height="32766" maskUnits="userSpaceOnUse"><g class="cls-43"/></mask><radialGradient id="radial-gradient" cx="872.39" cy="1918.32" r="412.43" gradientTransform="matrix(0.69, 0.17, -0.12, 0.57, 157.14, -680.01)" gradientUnits="userSpaceOnUse"><stop offset="0" stop-color="#fff"/><stop offset="0.15" stop-color="#c2c2c2"/><stop offset="0.43" stop-color="#5b5b5b"/><stop offset="0.62" stop-color="#191919"/><stop offset="0.71"/></radialGradient><filter id="luminosity-noclip-2" x="693.54" y="-8447.36" width="463.62" height="32766" filterUnits="userSpaceOnUse" color-interpolation-filters="sRGB"><feFlood flood-color="#fff" result="bg"/><feBlend in="SourceGraphic" in2="bg"/></filter><mask id="mask-2" x="693.54" y="-8447.36" width="463.62" height="32766" maskUnits="userSpaceOnUse"><g class="cls-42"/></mask><radialGradient id="radial-gradient-2" cx="1427.21" cy="1946.23" r="412.43" gradientTransform="matrix(0.69, 0.17, -0.12, 0.57, 171.97, -768.92)" xlink:href="#radial-gradient"/><filter id="luminosity-noclip-3" x="3639.14" y="-8447.36" width="34.62" height="32766" filterUnits="userSpaceOnUse" color-interpolation-filters="sRGB"><feFlood flood-color="#fff" result="bg"/><feBlend in="SourceGraphic" in2="bg"/></filter><mask id="mask-3" x="3639.14" y="-8447.36" width="34.62" height="32766" maskUnits="userSpaceOnUse"><g class="cls-41"/></mask><radialGradient id="radial-gradient-3" cx="17383.93" cy="23806.85" r="412.43" gradientTransform="matrix(0, -0.08, 0.04, 0, 2535.44, 2566.42)" xlink:href="#radial-gradient"/><filter id="luminosity-noclip-4" x="3642.11" y="-8447.36" width="34.62" height="32766" filterUnits="userSpaceOnUse" color-interpolation-filters="sRGB"><feFlood flood-color="#fff" result="bg"/><feBlend in="SourceGraphic" in2="bg"/></filter><mask id="mask-4" x="3642.11" y="-8447.36" width="34.62" height="32766" maskUnits="userSpaceOnUse"><g class="cls-40"/></mask><radialGradient id="radial-gradient-4" cx="17938.76" cy="23834.76" r="412.43" gradientTransform="matrix(0, -0.08, 0.04, 0, 2535.35, 2566.41)" xlink:href="#radial-gradient"/><linearGradient id="linear-gradient" x1="707.04" y1="995.37" x2="707.04" y2="1507.99" gradientUnits="userSpaceOnUse"><stop offset="0" stop-color="#fff"/><stop offset="1" stop-color="#b5b8dc"/></linearGradient><linearGradient id="linear-gradient-2" x1="257.33" y1="613.94" x2="1179.83" y2="613.94" xlink:href="#linear-gradient"/><linearGradient id="linear-gradient-3" x1="707.57" y1="189.22" x2="707.57" y2="1233.44" xlink:href="#linear-gradient"/><filter id="luminosity-noclip-5" x="298.29" y="328.04" width="463.62" height="448.64" filterUnits="userSpaceOnUse" color-interpolation-filters="sRGB"><feFlood flood-color="#fff" result="bg"/><feBlend in="SourceGraphic" in2="bg"/></filter><mask id="mask-5" x="298.29" y="328.04" width="463.62" height="448.64" maskUnits="userSpaceOnUse"><g class="cls-1"><ellipse class="cls-2" cx="530.1" cy="552.36" rx="232.2" ry="223.87" transform="translate(-111.24 134.28) rotate(-13.08)"/></g></mask><filter id="luminosity-noclip-6" x="693.54" y="348.25" width="463.62" height="448.64" filterUnits="userSpaceOnUse" color-interpolation-filters="sRGB"><feFlood flood-color="#fff" result="bg"/><feBlend in="SourceGraphic" in2="bg"/></filter><mask id="mask-6" x="693.54" y="348.25" width="463.62" height="448.64" maskUnits="userSpaceOnUse"><g class="cls-3"><ellipse class="cls-4" cx="925.34" cy="572.57" rx="232.2" ry="223.87" transform="translate(-105.56 224.25) rotate(-13.08)"/></g></mask><linearGradient id="linear-gradient-4" x1="16.96" y1="920.81" x2="82.47" y2="920.81" xlink:href="#linear-gradient"/><linearGradient id="linear-gradient-5" x1="37.04" y1="1097.81" x2="348.45" y2="1097.81" xlink:href="#linear-gradient"/><linearGradient id="linear-gradient-6" x1="10367.28" y1="920.81" x2="10432.79" y2="920.81" gradientTransform="matrix(-1, 0, 0, 1, 11762.67, 0)" xlink:href="#linear-gradient"/><linearGradient id="linear-gradient-7" x1="10387.36" y1="1097.81" x2="10698.77" y2="1097.81" gradientTransform="matrix(-1, 0, 0, 1, 11762.67, 0)" xlink:href="#linear-gradient"/><linearGradient id="linear-gradient-8" x1="3034.82" y1="2963.73" x2="3034.82" y2="3002.8" gradientTransform="matrix(0.04, -1, 1, 0.04, 609.1, 4137.92)" xlink:href="#linear-gradient"/><linearGradient id="linear-gradient-9" x1="2985.68" y1="2933.75" x2="3086.92" y2="2933.75" gradientTransform="matrix(0.04, -1, 1, 0.04, 609.1, 4137.92)" xlink:href="#linear-gradient"/><linearGradient id="linear-gradient-10" x1="3034.93" y1="2900.93" x2="3034.93" y2="2981.41" gradientTransform="matrix(0.04, -1, 1, 0.04, 609.1, 4137.92)" xlink:href="#linear-gradient"/><filter id="luminosity-noclip-7" x="3639.14" y="1216.22" width="34.62" height="50.93" filterUnits="userSpaceOnUse" color-interpolation-filters="sRGB"><feFlood flood-color="#fff" result="bg"/><feBlend in="SourceGraphic" in2="bg"/></filter><mask id="mask-7" x="3639.14" y="1216.22" width="34.62" height="50.93" maskUnits="userSpaceOnUse"><g class="cls-5"><ellipse class="cls-6" cx="3656.44" cy="1241.68" rx="17.31" ry="25.46" transform="translate(-2.48 7.32) rotate(-0.11)"/></g></mask><filter id="luminosity-noclip-8" x="3642.11" y="1172.93" width="34.62" height="50.93" filterUnits="userSpaceOnUse" color-interpolation-filters="sRGB"><feFlood flood-color="#fff" result="bg"/><feBlend in="SourceGraphic" in2="bg"/></filter><mask id="mask-8" x="3642.11" y="1172.93" width="34.62" height="50.93" maskUnits="userSpaceOnUse"><g class="cls-7"><ellipse class="cls-8" cx="3659.42" cy="1198.39" rx="17.31" ry="25.46" transform="translate(-2.39 7.33) rotate(-0.11)"/></g></mask><linearGradient id="linear-gradient-11" x1="2959.09" y1="2958.01" x2="2966.32" y2="2958.01" gradientTransform="matrix(0.04, -1, 1, 0.04, 609.1, 4137.92)" xlink:href="#linear-gradient"/><linearGradient id="linear-gradient-12" x1="2961.2" y1="2971.56" x2="2995.3" y2="2971.56" gradientTransform="matrix(0.04, -1, 1, 0.04, 609.1, 4137.92)" xlink:href="#linear-gradient"/><linearGradient id="linear-gradient-13" x1="8652.27" y1="2956.93" x2="8659.42" y2="2956.93" gradientTransform="matrix(-0.04, 1, 1, 0.04, 1079.2, -7615.36)" xlink:href="#linear-gradient"/><linearGradient id="linear-gradient-14" x1="8654.57" y1="2970.71" x2="8688.83" y2="2970.71" gradientTransform="matrix(-0.04, 1, 1, 0.04, 1079.2, -7615.36)" xlink:href="#linear-gradient"/></defs><g id="Layer_2" data-name="Layer 2"><g id="Layer_1-2" data-name="Layer 1"><path class="cls-9" d="M73.85,1002.68s24.31,269.37,255.33,399.62,455.17,121.11,629.27,73.4,291.33-189.59,329.92-255.1,50.85-153.45,51.86-202.64l-13.63,3.47s-145.15,86.23-271,110.39c0,0-69.64,104.81-75.14,104.81H951.43l-7.08,12.42s-34.49,100.14-70.65,135.33l-373.39-4.66s-75.49-60.26-89.54-152.64l-12.18-15.94-54-24.53-48.23-81S88.45,996,87,995.57s-6.79-.06-8.84,0S73.85,1002.68,73.85,1002.68Z"/><path class="cls-10" d="M907.61,330.31C833.27,298.87,773.84,288.74,722,288.74c-47.61,0-88.83,8.53-129.41,16.92C487.49,327.39,396,381.52,334.87,458.06c-50.8,63.66-76.89,136.43-77.53,216.3-.5,61.65,21.89,113.48,66.54,154.07,100.65,91.51,294.74,110.72,439.84,110.72,94.42,0,403.43-14.49,415.46-200.88C1189.67,575.62,1072.93,400.24,907.61,330.31Z"/><path class="cls-11" d="M760.59,189.22C658,189.22,540,230.89,428.37,306.55,320,380,226.75,478.4,165.7,583.74,48.52,785.94,75.81,966.49,78.42,981.84c52.43,43.37,216.23,122.94,217.89,123.74a3.37,3.37,0,0,1,1.39,1.22l51.41,80.59,59.17,28.4c5.16-22,26.18-107,45.62-118.69,22.39-13.47,363.59-10.7,410.21,3.33,47.08,14.17,80.83,115.68,86.28,133H979.3c7.12-7,48.28-66.33,73.33-103.29a3.49,3.49,0,0,1,2.18-1.43c142.43-31,270.26-109.9,284.78-119.06,16.14-236.92-82.61-482.53-264.35-657.28C970.58,251.74,850,189.22,760.59,189.22Zm425.63,549.42c-12.39,192-326.52,206.88-422.5,206.88-146.44,0-342.48-19.54-444.85-112.6-46-41.84-69.1-95.2-68.59-158.61.65-81.21,27.19-155.23,78.87-220C391.24,376.54,484.24,321.53,591,299.45c82-16.94,174.82-36.15,319.61,25.1,80.69,34.13,153.05,94.21,203.73,169.17C1166,570.06,1191.49,657,1186.22,738.64Z"/><path class="cls-12" d="M500.56,1377.29c.05,0,.07.1.13.15a1.33,1.33,0,0,1,.19.14c9.45,9.87,366.5,15.39,366.65,15.18,0,0,.05,0,.06,0l0-.09c.55-.7,54.85-70.4,76.42-155.93-3-9.77-37.27-116.7-82.18-130.22-24.53-7.37-124.77-11.27-213.24-11.86-100.32-.66-182.34,2.69-190.82,7.79-15.76,9.49-36.66,88.36-43.51,118.46C415.84,1308.24,499.71,1376.61,500.56,1377.29Z"/><path class="cls-13" d="M1259.32,1148.61l0,.05.08,0Z"/><path class="cls-13" d="M719.11,1431.94q-7.17-.27-14.46-.58l6,.47S713.8,1431.9,719.11,1431.94Z"/><path class="cls-13" d="M1082.19,1390.67s-40.31,46.34-126.38,67.91-245.19,30.83-245.19,30.83-159.12-9.25-245.2-30.83-126.37-67.91-126.37-67.91l-36.16-46.45c-18.42-4.81-32.56-8.85-41.05-11.36,25.54,38.55,54.56,72.36,86.9,95.27,65.76,46.58,196.75,76.67,350.41,80.5,148.78,3.73,283.08-18.39,350.48-57.65,37.88-22.08,72.73-61.77,103.46-108.08-11.1,4-22.64,7.72-34.42,11.2Z"/><path class="cls-13" d="M448.52,1114.31a75.59,75.59,0,0,1,8.35-11.21C454.19,1105.15,451.38,1109,448.52,1114.31Z"/><path class="cls-13" d="M500.56,1377.29c.05,0,.07.1.13.15a1.33,1.33,0,0,1,.19.14c9.45,9.87,36.55,35.77,48.34,37.15,18.62,2.2,234.3,18.8,269,8.76,34.42-10,49.18-30.52,49.33-30.73,0,0,.05,0,.06,0l0-.09c.55-.7,54.85-70.4,76.42-155.93-3-9.77-37.27-116.7-82.18-130.22-18.87-5.67-82.59-9.28-151.26-10.92v23.93s-233.24-1.54-236.66,0-52.6,84.47-52.6,84.47a18.31,18.31,0,0,1-1.12-7.16c-2.46,9.42-4.5,17.81-5.93,24.07C415.84,1308.24,499.71,1376.61,500.56,1377.29Zm33.89-54.74c62,38.64,144.74,34.94,144.74,34.94s82.26,9.32,144.22-29.31,93.76-104.28,93.76-104.28c-6,40-17.26,65.57-40.52,109.2-5.23,9.8-12.65,20.3-19.78,31.42-16.59,25.86-46.77,42.19-79.86,43.15l-97.82,2.84-84.11-8.45c-31.94-3.21-61.43-17.5-81.41-40.21a297.16,297.16,0,0,1-22.28-28.75c-22.56-33-44.18-69.23-50.19-109.2C441.2,1223.9,472.48,1283.91,534.45,1322.55Z"/><path class="cls-13" d="M760.59,189.22C658,189.22,540,230.89,428.37,306.55,320,380,226.75,478.4,165.7,583.74,48.52,785.94,75.81,966.49,78.42,981.84c52.43,43.37,216.23,122.94,217.89,123.74a3.37,3.37,0,0,1,1.39,1.22l51.41,80.59,59.17,28.4c1.39-5.94,3.94-16.47,7.3-28.89v0l-49.43-21.81-46-86.32L104.28,965.19c-.91-17.41,14.57-45.14,14.57-45.14,44.33,32.7,175.79,83.11,175.79,83.11l5.47-60.83c151.19,111,410.51,107.28,410.51,107.28s259.31,3.7,410.51-107.28l5.46,60.83s131.47-50.41,175.79-83.11c0,0,2.83,50.08,1.91,67.49l-265,111.6L973,1207.65l-30.32,3.49c3.87,10.35,6.51,18.43,7.73,22.3H979.3c7.12-7,48.28-66.33,73.33-103.29a3.49,3.49,0,0,1,2.18-1.43c142.43-31,270.26-109.9,284.78-119.06,16.14-236.92-82.61-482.53-264.35-657.28C970.58,251.74,850,189.22,760.59,189.22Zm425.63,549.42c-12.39,192-326.52,206.88-422.5,206.88-146.44,0-342.48-19.54-444.85-112.6-46-41.84-69.1-95.2-68.59-158.61.65-81.21,27.19-155.23,78.87-220C391.24,376.54,484.24,321.53,591,299.45c82-16.94,174.82-36.15,319.61,25.1,80.69,34.13,153.05,94.21,203.73,169.17C1166,570.06,1191.49,657,1186.22,738.64Z"/><path class="cls-13" d="M907.61,330.31C833.27,298.87,773.84,288.74,722,288.74c-47.61,0-88.83,8.53-129.41,16.92C487.49,327.39,396,381.52,334.87,458.06c-50.8,63.66-76.89,136.43-77.53,216.3-.5,61.65,21.89,113.48,66.54,154.07,100.65,91.51,294.74,110.72,439.84,110.72,94.42,0,403.43-14.49,415.46-200.88C1189.67,575.62,1072.93,400.24,907.61,330.31Z"/><g class="cls-14"><path class="cls-15" d="M315.14,1217.31c1.82,2,97.15,39.56,97.15,39.56h0a154.46,154.46,0,0,1-5-34.31l-62.43-30a3.39,3.39,0,0,1-1.4-1.22l-51.42-80.6c-10.7-5.2-146.53-80-211.48-118.77,2.42,9-1.16,29.06,5.4,49.94,0,0,155.36,75.09,180,88.65S313.31,1215.25,315.14,1217.31Z"/></g><g class="cls-14"><path class="cls-15" d="M1012.94,1257.28c1.83-2,48.36-90.27,75.15-99.88,27.58-9.9,236.26-86.59,250.66-91.81,7.13-20-1.24-42,1.48-50.51-53.47,28.34-190.71,99.37-282.34,119.52-71.34,105.21-75,105.21-77.39,105.21h-30c-2.72,10.56-5.94,20.87-9.47,30.84h0S1011.12,1259.34,1012.94,1257.28Z"/></g><g class="cls-14"><path class="cls-15" d="M513.67,1361.85c20,22.71,51,16.66,82.91,19.87l81.62-.77,103.87,3.27c33.09-1,58.21,6.16,74.8-19.7,7.13-11.12,14.55-21.62,19.78-31.42,23.26-43.63,34.51-69.23,40.52-109.2,0,0-31.8,65.64-93.76,104.28s-144.22,29.31-144.22,29.31-82.78,3.7-144.74-34.94-93.25-98.65-93.25-98.65c6,40,27.63,76.17,50.19,109.2A297.16,297.16,0,0,0,513.67,1361.85Z"/></g><g class="cls-14"><path class="cls-16" d="M1039.24,1099.14l265-111.6c.92-17.41-1.91-67.49-1.91-67.49-44.32,32.7-175.79,83.11-175.79,83.11L1124.06,975c-1.25-14-18.66-21.45-31.62-13.7-153.07,91.55-381.82,88.29-381.82,88.29s-228.75,3.26-381.83-88.29c-13-7.75-30.36-.29-31.62,13.7l-2.53,28.14s-131.46-50.41-175.79-83.11c0,0-15.48,27.73-14.57,45.14l215.86,113.6,46,86.32,49.43,21.81v0c9.09-33.64,24.12-81.25,38.32-89.8,22.39-13.47,363.59-10.7,410.21,3.33,36.57,11,65.08,74.69,78.55,110.71l30.32-3.49Z"/></g><g class="cls-17"><path class="cls-18" d="M195.47,1172.86c6.78,3.87,48.21,13.46,50,15.6s38.57,55.63,56.43,72.07c0,0-40.71-82.51-42.86-84.77s-83.56-25.78-83.56-24.17S188.68,1169,195.47,1172.86Z"/></g><g class="cls-17"><path class="cls-18" d="M1142.09,1188.46c1.78-2.14,43.21-11.73,50-15.6s20-19.66,20-21.27-81.42,21.92-83.56,24.17-42.86,84.77-42.86,84.77C1103.52,1244.09,1140.3,1190.59,1142.09,1188.46Z"/></g><g class="cls-17"><path class="cls-18" d="M930.72,1200c-7.16-27.35-43.41-66.69-53.69-85.65a74.89,74.89,0,0,0-8.35-11.21,9.52,9.52,0,0,0-.94-.7c-5.52-3.32-42.15-5.89-94.66-7.11-29.28-.42-60.82-.63-88-.72l-8.19,0-14.13.13-14.14-.13-8.19,0c-27.16.09-58.7.3-88,.72-52.51,1.22-89.14,3.79-94.65,7.11a8.57,8.57,0,0,0-.95.7,75.59,75.59,0,0,0-8.35,11.21c-10.28,19-21.11,55.13-28.28,82.48a18.31,18.31,0,0,0,1.12,7.16s49.19-82.92,52.6-84.47c1.92-.86,76.16-.76,141-.5v.5s224,1.13,239.57,11.39c21.17,14,81.59,93,81.59,93C936.86,1222.2,930.71,1203,930.72,1200Z"/></g><g class="cls-14"><path class="cls-15" d="M552.47,1095.29c29.28-.42,60.82-.63,88-.72C608.45,1094.42,578.51,1094.69,552.47,1095.29Z"/></g><g class="cls-17"><path class="cls-18" d="M552.47,1095.29c29.28-.42,60.82-.63,88-.72C608.45,1094.42,578.51,1094.69,552.47,1095.29Z"/></g><g class="cls-17"><path class="cls-18" d="M242.75,643s-45.56,111.33,59.17,204.53S543.7,974.25,789,968.93s347.22-59.65,394.42-139.88,0-184.15,0-184.15,44.8,153.8-106.81,234.13-439.64,85-636.86,18.48S250.08,687.38,242.75,643Z"/></g><ellipse class="cls-12" cx="529.36" cy="552.28" rx="91.1" ry="53.88" transform="translate(-90.52 1000.6) rotate(-82.09)"/><ellipse class="cls-12" cx="925.34" cy="580.64" rx="91.1" ry="53.88" transform="translate(222.87 1417.27) rotate(-82.09)"/><g class="cls-17"><path class="cls-18" d="M404.33,1263.85s53.83,128.93,83.61,136.9,395,9.76,395,9.76,41.67-48.74,53.22-111.31c0,0-65.73,84.27-70.15,84.94s-365.7-4.42-365.7-4.42Z"/></g><g class="cls-14"><path class="cls-16" d="M119.38,1146.14S318,1461.23,709.07,1461.23s592.21-274.62,592.21-274.62-108.34,320.27-561.18,320.27-586.92-260.2-620.72-355.37"/></g><path class="cls-16" d="M980.49,1246.74H947.7c-5.05,0-9.49-3.06-10.81-7.47-13.14-43.75-45.79-116.7-77.43-126.22-48.24-14.51-371.59-14.27-397.66-4.7-10.1,7.2-28.78,64.58-40.05,114.27a10.34,10.34,0,0,1-6.2,7.12,12.25,12.25,0,0,1-10-.22L341.3,1198.7a10.81,10.81,0,0,1-4.45-3.89l-50.33-78.89c-23-11.21-169.34-83.37-219-125.08a9.85,9.85,0,0,1-3.4-5.66c-1.52-7.79-35.66-193.28,88.55-407.6,62-107.06,156.83-207.1,266.88-281.67,114.19-77.37,235.31-120,341.06-120,94.77,0,216.41,62.56,325.39,167.35A907.92,907.92,0,0,1,1286,629.64c54.35,123.63,77.28,252.28,68.14,382.38a9.88,9.88,0,0,1-4.64,7.57c-5.5,3.57-135.3,87-286.76,121.05-5.48,8.07-19.51,28.62-33.69,49C989.24,1246.74,988.08,1246.74,980.49,1246.74Zm-24.33-20.22H975.6c10.42-12.62,46.17-64.12,70.48-100A11.17,11.17,0,0,1,1053,1122c134-29.15,255.07-101.22,279.14-116.11,14.86-234-83.05-476.21-262.51-648.77-103.26-99.29-221.68-161-309.05-161-100.92,0-217.27,41.18-327.61,115.94C325.54,384.89,233,482.5,172.5,587,60.87,779.57,81.67,952.5,85.62,978.38c53.76,43.1,212.69,120.31,214.32,121.1a10.77,10.77,0,0,1,4.41,3.86l50.31,78.87,48.25,23.16c8.47-34.79,27.12-102.22,46.73-114,16.83-10.12,144.82-10.38,199.11-10,87,.58,190,4.17,217.79,12.54C914,1108.15,946.86,1198.05,956.16,1226.52Z"/><path class="cls-19" d="M844.44,1394.57c-147,0-344.42-4.74-346.53-4.8a11.81,11.81,0,0,1-7.14-2.55c-3.67-2.94-89.78-73.08-91.2-166.48-.08-5.59,4.87-10.18,11.05-10.25h.16c6.11,0,11.11,4.43,11.2,10,1.14,75.26,66.19,136.41,80.8,149.2,31.41.73,228.67,5.13,365.23,4.64,11.4-14.42,50.82-68,68.77-139.89,1.35-5.45,7.33-8.86,13.39-7.65s9.82,6.65,8.46,12.09c-22.16,88.75-73.91,149.23-76.11,151.76a11.63,11.63,0,0,1-8.76,3.88C864.28,1394.54,854.46,1394.57,844.44,1394.57Z"/><path class="cls-16" d="M763.72,952.44c-147.9,0-346.07-19.89-450.3-114.64-47.51-43.19-71.34-98.22-70.81-163.53.66-82.69,27.68-158,80.31-224C386.1,371.13,480.71,315.16,589.29,292.7h0c83.14-17.2,177.38-36.69,324.57,25.57,82,34.71,155.57,95.73,207,171.84,52.43,77.54,78.35,165.94,73,248.94-5.11,79.24-59.59,137.87-161.91,174.25C936.21,947.36,822.8,952.44,763.72,952.44Zm-169.43-640C491,333.77,401.1,386.93,341.1,462.11,291.24,524.57,265.64,596,265,674.41c-.48,59.73,21.16,109.91,64.31,149.14,98.8,89.82,290.76,108.67,434.4,108.67,92.72,0,396.16-14,407.8-194.35,10.32-160-104.53-332.49-267.16-401.29-140.21-59.3-226.56-41.44-310.07-24.17Zm-2.5-9.85h0Z"/><path class="cls-16" d="M707.39,1517.73c-182.7,0-340.3-55.53-470.52-166.15-84.11-71.45-126.64-167.65-147.51-235.76-22.55-73.57-25.31-129.62-25.42-132-.25-5.58,4.55-10.29,10.73-10.51s11.4,4.1,11.65,9.68c.11,2.21,12,223.11,165.91,353.84C428.71,1486.78,657.92,1532,933.5,1471.32c245.85-54.15,398.16-280.9,398.3-459.94,0-5.58,5-10.11,11.2-10.11h0c6.19,0,11.2,4.54,11.2,10.12-.08,96.69-41.24,202.75-112.94,291-77.85,95.8-185.26,162.77-302.45,188.58Q817.24,1517.74,707.39,1517.73Z"/><path class="cls-20" d="M1173.71,145.5c6.77-14.85,6.88-29.52.16-43.68-12.13-25.63-42.86-42.39-60.54-47.41-22.75-6.46-45,5-54.28,10.72C1099.8,85,1138.85,111.19,1173.71,145.5Z"/><path class="cls-21" d="M257.25,425.22c8.94-7.28,42.22-32.56,98.15-54.52,43.62-17.13,107.53-34.36,188-34.36a591.5,591.5,0,0,1,95.25,7.84c153.06,24.93,336.24,106.89,474.81,185-143.2-169.47-327.91-255.49-459.32-298C507.68,183.78,394,178.73,392.86,178.69h-.07c-1.59-.09-159-8-191.4,68.65C170.64,320.1,209.67,386.51,257.25,425.22Z"/><path class="cls-21" d="M1070.07,223.23c8.92,81.64-59.26,169-71.68,184.09a892.52,892.52,0,0,1,131.78,131.34c64.75,37.29,118.52,73.12,153,100.71,11.06-29.21,67.65-201.12-45.3-399.11A415,415,0,0,0,1172.69,154a3.15,3.15,0,0,1-1.07-1.08c-36.2-36.39-77.18-63.68-120-84a3.63,3.63,0,0,1-2-.95c-47.31-22.22-96.74-36-144.32-44.12C952.5,46.35,1055.32,108.11,1070.07,223.23Z"/><path class="cls-20" d="M993.46,406.91c12.68-15.74,78.46-101.69,70-179.17-18-140-170.15-199.21-182.94-203.93-76.91-10.22-146.86-6.6-192.09-1.74-39.74,4.27-77,13.83-110.7,28.41C483.34,91.27,417.28,158.37,400.45,176.57c26.77,1.86,129.27,11.3,256.23,52.33C752.81,260,877.25,314.19,993.46,406.91Z"/><path class="cls-13" d="M1114.9,79.47c17.25,6.48,46.45,25.28,50.55,37.15a31.55,31.55,0,0,1-.36,20.67c2.9,2.69,5.78,5.41,8.62,8.21,6.77-14.85,6.88-29.52.16-43.68-12.13-25.63-42.86-42.39-60.54-47.41-22.75-6.46-45,5-54.28,10.72q13,6.3,25.66,13.51A48,48,0,0,1,1114.9,79.47Z"/><path class="cls-13" d="M429.78,175.51s47.48-53.6,117.16-85.66c0,0-9.11,66.59,123,97s245-64.12,245-119.2c0,0,104.34,46.85,116.38,171,0,63.09-36.74,117.67-60.28,147.38q11.06,8.3,22,17.06c12.68-15.75,78.46-101.69,70-179.18C1045.1,83.88,892.9,24.7,880.11,20,803.21,9.76,733.25,13.38,688,18.24c-39.74,4.28-77,13.83-110.7,28.41-94.38,40.8-160.44,107.9-177.26,126.09,6.12.43,16.26,1.26,29.72,2.77Z"/><path class="cls-13" d="M1199.09,214.81C1129.3,119.28,988,68,966.8,60.76c45.23,33.54,93.51,86.32,103.27,162.47,2.13,19.51-.17,39.34-5,58.44,2.46-4.13,4.51-6.51,5.63-5.62,0,0,38.75,85.91,108.18,113.86s92.2,13.18,92.2,13.18,29.76,116-9.26,219.94c7.77,5.7,14.91,11.17,21.37,16.34,7.94-21,39.29-115.34,14.69-240.11C1284.47,363.09,1253.22,288.89,1199.09,214.81Z"/><path class="cls-13" d="M929.47,364.47C744,241.78,387.06,176.87,288.72,206.59c-85.08,25.71-86.21,121.75-84.24,152.91,12.4,26.09,31.74,48.61,52.77,65.72a263.25,263.25,0,0,1,22.5-16.12c-17.4-20-75-95.72-12.43-157.3,72.75-71.64,521-1.74,764,233.41,0,0-12.3-6.58-34.58-17.12,41.07,19.89,80.44,40.6,116.74,61C1056.69,462,993.39,407.92,929.47,364.47Z"/><g class="cls-14"><path class="cls-16" d="M267.32,251.8c-62.54,61.58-5,137.26,12.43,157.3a425.14,425.14,0,0,1,75.65-38.4c43.62-17.13,107.53-34.36,188-34.36a591.5,591.5,0,0,1,95.25,7.84c113,18.4,242.33,67.88,358.07,123.91,22.28,10.54,34.58,17.12,34.58,17.12C788.36,250.06,340.07,180.16,267.32,251.8Z"/></g><g class="cls-14"><path class="cls-16" d="M914.92,67.66c0,55.08-112.95,149.61-245,119.2s-123-97-123-97c-69.68,32.06-117.16,85.66-117.16,85.66h0c45.3,5.08,128.62,17.93,226.51,49.56,90.07,29.11,205,78.55,314.73,161,23.54-29.71,60.28-84.29,60.28-147.38C1019.26,114.51,914.92,67.66,914.92,67.66Z"/></g><g class="cls-14"><path class="cls-16" d="M1271.05,403.09s-22.77,14.77-92.2-13.18-108.18-113.86-108.18-113.86c-1.12-.89-3.17,1.49-5.63,5.62-15.48,60.81-57.2,114.14-66.65,125.65a892.52,892.52,0,0,1,131.78,131.34c52.61,30.3,98,59.63,131.62,84.37C1300.81,519.1,1271.05,403.09,1271.05,403.09Z"/></g><g class="cls-14"><path class="cls-15" d="M1165.45,116.62c-4.1-11.87-33.3-30.67-50.55-37.15a48,48,0,0,0-30.19-.83,426.85,426.85,0,0,1,80.38,58.65A31.55,31.55,0,0,0,1165.45,116.62Z"/></g><g class="cls-17"><path class="cls-18" d="M307.54,206.59C403,176.87,749.43,241.78,929.47,364.47,835,298.34,739.21,256.79,662.23,231.14c-142.17-47.36-252.52-52.41-253.62-52.45h-.06c-1.55-.09-154.35-8-185.78,68.65-16.65,40.6-12.2,79.22,3,112.16C223.86,328.34,225,232.3,307.54,206.59Z"/></g><g class="cls-17"><path class="cls-18" d="M1199.09,214.81c54.13,74.08,85.38,148.28,98.76,184.45-9.69-49.16-28.07-103-60-159A415,415,0,0,0,1172.69,154a3.15,3.15,0,0,1-1.07-1.08c-36.2-36.39-77.18-63.68-120-84a3.63,3.63,0,0,1-2-.95c-47.31-22.22-96.74-36-144.32-44.12a378,378,0,0,1,61.47,37C988,68,1129.3,119.28,1199.09,214.81Z"/></g><path class="cls-16" d="M1284.71,655a11.93,11.93,0,0,1-7.52-2.61c-85.74-70.09-392-254.56-641.16-295.13C514.15,337.42,419.87,360,362.24,382.52c-62.6,24.41-96.8,54-97.14,54.25a12.1,12.1,0,0,1-15.18.36c-52.38-41.36-96.25-114.19-62.29-194.53,32.8-77.62,169.53-78.28,200.19-77.42C404,147.36,471.34,77.72,571,34.66,606.13,19.45,644.94,9.48,686.28,5c78.37-8.42,196-10.44,311.27,27.83C1111,70.51,1196.22,138.24,1251,234.18,1317,350,1325.61,456.3,1321.17,525.06c-4.83,74.76-25.19,121.62-26.05,123.58a11,11,0,0,1-7.88,6.11A12,12,0,0,1,1284.71,655ZM543.39,329.41a600,600,0,0,1,96.63,8c228.19,37.16,522.85,200.26,639.41,289.9,6.25-18.78,16.37-55.58,19.43-104.25,4.14-66-4.26-168.17-67.83-279.59-134.2-235.22-423.8-231-542.1-218.31C650,29.3,613.59,38.65,580.63,52.9c-107.76,46.58-178,128-178.74,128.78a11.72,11.72,0,0,1-9.57,3.92c-1.54-.09-153.4-7.63-183.76,64.21-28.3,66.95,5.5,128.47,48.87,166.11,14-10.57,46-32.38,94.91-51.57C396.69,346.93,461.65,329.41,543.39,329.41Z"/><path class="cls-16" d="M1128.18,551.67a11.65,11.65,0,0,1-9.06-4.15C975.67,370.12,786,281.19,652.07,237.83c-145.47-47.11-258.44-52.18-259.56-52.22-6.18-.26-11-5-10.69-10.56s5.52-9.9,11.69-9.65c4.7.19,116.85,5.16,265.36,53.15C796,262.84,990.22,353.81,1137.22,535.6c3.65,4.51,2.56,10.84-2.44,14.13A12,12,0,0,1,1128.18,551.67Z"/><path class="cls-16" d="M993.75,417.7a12,12,0,0,1-6.82-2.1,9.47,9.47,0,0,1-2-14.18c.8-.93,79.55-94.37,70.54-176.83-18.08-141-177.32-197.9-178.93-198.46-5.77-2-8.65-7.85-6.44-13.06s8.7-7.81,14.46-5.82c1.78.61,44,15.41,89,49.16,60,45,96,102.38,104.18,166,9.9,90.67-71.59,187.26-75.07,191.33A11.65,11.65,0,0,1,993.75,417.7Z"/><path class="cls-16" d="M1174.68,161.55a12.13,12.13,0,0,1-5-1.05c-5.55-2.47-7.83-8.53-5.09-13.54,7.92-14.49,8.65-28.76,2.18-42.42C1155.7,81.07,1127.36,65.65,1111,61c-25.26-7.16-51.28,12.23-51.53,12.42a12.05,12.05,0,0,1-15.8-1.09,9.44,9.44,0,0,1,1.22-14.26c1.42-1.11,35.44-27,72.82-16.36,24.31,6.89,56.48,27,69.68,54.86,9,19.06,8.1,39.57-2.69,59.31A11.38,11.38,0,0,1,1174.68,161.55Z"/><path class="cls-20" d="M673.32,617.51l76.54,4.39c11.58.67,19.13,11.4,14.69,21.07-8.62,18.78-26.11,43.94-57.7,42.68-31.92-1.27-45.48-29.08-51.12-49.1C652.9,626.47,661.82,616.85,673.32,617.51Z"/><g class="cls-22"><ellipse class="cls-20" cx="530.1" cy="552.36" rx="232.2" ry="223.87" transform="translate(-111.24 134.28) rotate(-13.08)"/></g><g class="cls-23"><ellipse class="cls-20" cx="925.34" cy="572.57" rx="232.2" ry="223.87" transform="translate(-105.56 224.25) rotate(-13.08)"/></g><g class="cls-24"><ellipse class="cls-15" cx="736.42" cy="1740.16" rx="485.14" ry="38.97"/></g><path class="cls-20" d="M904.64,731.24H456.55c-46.95,0-85.16,34.48-85.16,76.86v498.36c0,42.38,38.21,76.86,85.16,76.86H904.64c47,0,85.16-34.48,85.16-76.86V808.1C989.8,765.72,951.6,731.24,904.64,731.24Z"/><path class="cls-13" d="M904.64,731.24h-224v24.57c18.39,0,33.36,13.51,33.36,30.12,0,.82,0,1.66-.12,2.5h15.9c14.22,0,25.78,10.43,25.78,23.26S744,835,729.74,835H631.45c-14.21,0-25.77-10.44-25.77-23.27s11.56-23.26,25.77-23.26h15.9c-.08-.84-.12-1.68-.12-2.5,0-16.61,15-30.12,33.37-30.12H470.16c-41.43,0-67.45,36.53-67.45,39.57S379.1,991.07,379.1,991.07l-7.71,10.47v304.92c0,42.38,38.21,76.86,85.16,76.86H904.64c47,0,85.16-34.48,85.16-76.86V808.1C989.8,765.72,951.6,731.24,904.64,731.24Zm-224,622.94H455.71c-35.66,0-50.11-47.84-50.11-47.84V951.5c24.09,58.27,32.76,227,55.89,271.35s81.61,44.36,81.61,44.36H680.6Z"/><path class="cls-13" d="M655.35,791.06a3.16,3.16,0,0,1-.73,2.84,3.9,3.9,0,0,1-2.92,1.27H631.45c-10.09,0-18.31,7.41-18.31,16.52s8.22,16.53,18.31,16.53h98.29c10.1,0,18.31-7.42,18.31-16.53s-8.21-16.52-18.31-16.52H709.49a3.88,3.88,0,0,1-2.91-1.27,3.08,3.08,0,0,1-.73-2.84,21.34,21.34,0,0,0,.65-5.13c0-12.89-11.62-23.38-25.9-23.38S654.7,773,654.7,785.93A21.41,21.41,0,0,0,655.35,791.06Z"/><g class="cls-14"><path class="cls-16" d="M899.71,1222.85c-23.13,44.36-81.61,44.36-81.61,44.36h-275s-58.48,0-81.61-44.36-31.8-213.08-55.89-271.35v354.84s14.45,47.84,50.11,47.84H905.49c35.65,0,50.1-47.84,50.1-47.84V951.5C931.5,1009.77,922.83,1178.49,899.71,1222.85Z"/></g><g class="cls-17"><path class="cls-18" d="M904.64,731.24H456.55c-46.95,0-85.16,34.48-85.16,76.86v193.44l7.71-10.47s23.61-192.64,23.61-195.69,26-39.57,67.45-39.57H891c41.44,0,67.46,36.53,67.46,39.57S982.1,991.07,982.1,991.07l7.7,10.47V808.1C989.8,765.72,951.6,731.24,904.64,731.24Z"/></g><path class="cls-25" d="M670.17,824.75h66.18s10.6-17,2-23.31-26.05-7.55-29.27-9-10.86-22.18-24.93-23.21-19.26,1.69-21,3.61-6.54,14.84-6.54,14.84-22.2,5.8-25.11,7.46-9.3,15.54-8.6,16.71,2.72,6,4.75,7.68,13.13,5.19,13.13,5.19Z"/><path class="cls-16" d="M904.64,1396.8H456.55c-55.19,0-100.1-40.53-100.1-90.35V808.11c0-49.82,44.91-90.35,100.1-90.35H904.64c55.2,0,100.1,40.53,100.1,90.35v498.34C1004.74,1356.27,959.84,1396.8,904.64,1396.8ZM456.55,738c-42.84,0-77.69,31.46-77.69,70.13v498.34c0,38.67,34.85,70.13,77.69,70.13H904.64c42.84,0,77.69-31.46,77.69-70.13V808.11c0-38.67-34.85-70.13-77.69-70.13Z"/><path class="cls-16" d="M720.46,834.86H640.73c-16,0-29.08-11.77-29.08-26.25s13-26.25,29.08-26.25h5.13c2.82-15,17.33-26.45,34.74-26.45s31.91,11.45,34.74,26.45h5.12c16,0,29.09,11.78,29.09,26.25S736.5,834.86,720.46,834.86Zm-79.73-32.27c-3.68,0-6.68,2.7-6.68,6s3,6,6.68,6h79.73c3.69,0,6.68-2.7,6.68-6s-3-6-6.68-6H704a11.67,11.67,0,0,1-8.74-3.8,9.33,9.33,0,0,1-2.18-8.53,10.48,10.48,0,0,0,.32-2.55c0-6.38-5.76-11.58-12.83-11.58s-12.84,5.2-12.84,11.58a10.5,10.5,0,0,0,.33,2.55,9.36,9.36,0,0,1-2.18,8.53,11.71,11.71,0,0,1-8.75,3.8Z"/><path class="cls-26" d="M82.47,921.47c-12.56-19.76-16.78-40.15-18.16-51.31C34.58,903.72,21.32,939,17,971.46,29.13,957.87,53.42,933.83,82.47,921.47Z"/><path class="cls-25" d="M334,1065.87c-8.12,35.16-14.23,97.74,22.19,156.54,30.53,10.77,54.75,8.24,71.94-7.61,28.82-26.56,31.43-86.47,14.51-122.3C421.27,1047.25,347.64,1062.59,334,1065.87Z"/><path class="cls-27" d="M327,1063.15a3,3,0,0,1,.34-1.39,212,212,0,0,1,7-23.47c-50.72-19-91.85-49.62-119.26-70-15.82-11.79-28.31-21.1-34.93-22.52-18-3.86-49.92,12.38-52,13.45-3.65,2.54-85.3,60.41-89.89,137.39a1.68,1.68,0,0,1-.06.24c0,.06,0,.12,0,.18-6.52,32.51,14.77,96.06,15,96.7.15.29,27.07,56.79,132.76,56.79,1.53,0,3.07,0,4.63,0,95.4-1.46,145.3-21,157.8-26.68C311.8,1163,318.6,1098.78,327,1063.15Z"/><path class="cls-20" d="M119.58,956.78a104,104,0,0,1-33.15-29.52C50.64,942.17,21.25,977.14,15.7,984c-3,43.64,9.16,80.65,16.69,98.83C43.33,1017.58,102.76,969.28,119.58,956.78Z"/><path class="cls-13" d="M192.75,1153.58c86.37-13,130.93-73.77,130.93-73.77,1-6,2.15-11.65,3.34-16.66a3,3,0,0,1,.34-1.39c1-4.17,2-7.92,3-11.21-74.15-19.2-153.86-79.61-164.7-81.9s-84.56,36.4-84.56,36.4l21.47-24.6c-24.9,23.32-59.44,63.89-63.9,112.43C49.83,1122.56,115.63,1165.22,192.75,1153.58Z"/><path class="cls-13" d="M190.59,1234.79c-59.57,1.71-97.16-9.1-115.95-16.72,19.15,15.4,53.39,32.41,111.38,32.41,1.53,0,3.07,0,4.63,0,95.4-1.46,145.3-21,157.8-26.68a193.64,193.64,0,0,1-11.26-21.71C324.18,1208.35,269.4,1232.52,190.59,1234.79Z"/><path class="cls-13" d="M352.83,1216.75q1.62,2.84,3.36,5.66c30.53,10.77,54.75,8.24,71.94-7.61,14.61-13.46,22.47-35.5,24.48-58.62C445.73,1179.61,420.84,1220.79,352.83,1216.75Z"/><path class="cls-13" d="M442.46,1096.39l3.78,5a94.35,94.35,0,0,0-3.6-8.87,48,48,0,0,0-8.43-12.38c-31.64-11.13-90.47.74-103.68,3.91-3.22,21.13-4.41,47.75,1.23,76.11C355.6,1172.77,436.8,1120.05,442.46,1096.39Z"/><path class="cls-13" d="M71.52,934.78a176.91,176.91,0,0,0-22.68,16,169.06,169.06,0,0,0,19,56.59A276,276,0,0,1,104.46,969h0A94.24,94.24,0,0,1,71.52,934.78Z"/><path class="cls-13" d="M321.06,1136.92a237.78,237.78,0,0,1,2.62-57.11S316.76,1110.91,321.06,1136.92Z"/><path class="cls-13" d="M47.74,942.51a175.81,175.81,0,0,1,20.49-13.88A138.34,138.34,0,0,1,55,881.41q-3.36,4.35-6.38,8.71A204.15,204.15,0,0,0,47.74,942.51Z"/><g class="cls-14"><path class="cls-15" d="M452.61,1156.18c1.64-18.91-.64-38.54-6.37-54.81l-3.78-5c-5.66,23.66-86.86,76.38-110.7,63.75a186.74,186.74,0,0,0,21.07,56.61C420.84,1220.79,445.73,1179.61,452.61,1156.18Z"/></g><g class="cls-14"><path class="cls-16" d="M15.7,984c-3,43.64,9.16,80.65,16.69,98.83,4.88-29.11,19.4-54.83,35.49-75.51a169.06,169.06,0,0,1-19-56.59A244.71,244.71,0,0,0,15.7,984Z"/></g><g class="cls-14"><path class="cls-16" d="M48.65,890.12A185,185,0,0,0,17,971.46a241.82,241.82,0,0,1,30.78-29A204.15,204.15,0,0,1,48.65,890.12Z"/></g><g class="cls-14"><path class="cls-16" d="M190.59,1234.79c78.81-2.27,133.59-26.44,146.6-32.74a199.67,199.67,0,0,1-16.13-65.13c-4.3-26,2.62-57.07,2.62-57.11h0s-44.56,60.72-130.93,73.77c-77.12,11.64-142.92-31-154.08-60.7-.12,1.23-.27,2.45-.34,3.69a1.68,1.68,0,0,1-.06.24c0,.06,0,.12,0,.18-6.52,32.51,14.77,96.06,15,96.7.07.13,5.63,11.72,21.38,24.38C93.43,1225.69,131,1236.5,190.59,1234.79Z"/></g><g class="cls-17"><path class="cls-18" d="M165.66,968.65c10.84,2.29,90.55,62.7,164.7,81.9,1.61-5.47,3.07-9.65,4-12.26-50.72-19-91.85-49.62-119.26-70-15.82-11.79-28.31-21.1-34.93-22.52-18-3.86-49.92,12.38-52,13.45a251.18,251.18,0,0,0-25.65,21.27l-21.47,24.6S154.81,966.37,165.66,968.65Z"/></g><g class="cls-17"><path class="cls-18" d="M82.47,921.47c-12.56-19.76-16.78-40.15-18.16-51.31-3.3,3.73-6.37,7.48-9.28,11.25a138.34,138.34,0,0,0,13.2,47.22A132.52,132.52,0,0,1,82.47,921.47Z"/></g><g class="cls-17"><path class="cls-18" d="M434.21,1080.12c-27.88-29.73-88-17.19-100.21-14.25-1.25,5.44-2.46,11.53-3.47,18.16C343.74,1080.86,402.57,1069,434.21,1080.12Z"/></g><g class="cls-17"><path class="cls-18" d="M336,1058.49l-.12-.16a1.05,1.05,0,0,1-.05.19Z"/></g><g class="cls-17"><path class="cls-18" d="M86.43,927.26a123.87,123.87,0,0,0-14.91,7.52,94.24,94.24,0,0,0,33,34.2h0c6.32-5.48,11.64-9.62,15.12-12.21A104,104,0,0,1,86.43,927.26Z"/></g><path class="cls-16" d="M34.6,1106.5a11.4,11.4,0,0,1-10-5.58c-.75-1.37-18.58-34-23.42-80.55C-3.33,977.15,3,913.37,58.88,855a12,12,0,0,1,12.39-2.87,10.22,10.22,0,0,1,7.3,9.46h0c0,.59.89,59.76,53,86a10.06,10.06,0,0,1,5.72,8.13,9.73,9.73,0,0,1-4.42,8.76c-.82.56-82.64,57.39-87.11,132.51-.27,4.58-3.93,8.42-8.91,9.35A11.8,11.8,0,0,1,34.6,1106.5ZM59.72,887c-29,38.19-41.21,82.06-36.32,130.72a220.32,220.32,0,0,0,7.88,40c16.93-48,56.11-84.25,76.07-100.36C77.22,937,64.82,907.83,59.72,887Zm18.85-25.46h0Z"/><path class="cls-16" d="M11.68,993.4a12,12,0,0,1-6.36-1.79C.23,988.43-1,982.14,2.47,977.54c1.45-1.89,36.06-46.6,80.84-63.8,5.7-2.19,12.27.21,14.69,5.34s-.23,11.08-5.92,13.27C53.21,947.28,21.22,988.62,20.9,989A11.59,11.59,0,0,1,11.68,993.4Z"/><path class="cls-16" d="M185.9,1264c-115.88,0-145.38-62.78-146.59-65.5a7.76,7.76,0,0,1-.34-.84c-.92-2.73-22.54-67.34-15.39-103,1.1-5.49,6.9-9.14,13-8.15s10.13,6.26,9,11.75c-5.89,29.38,12.62,87,14.6,93,2.44,4.88,28.81,52.53,125.68,52.53,1.52,0,3.05,0,4.61,0,81.3-1.24,128.78-15.77,147.68-23.09-41.84-75.27-22-152.25-13-178.56-48.79-19.45-88.17-48.78-114.78-68.61-12.64-9.42-27-20.09-31.9-21.15-11.51-2.49-34.75,6.55-46.7,12.81-5.35,2.81-12.2,1.18-15.31-3.65s-1.31-11,4-13.82c4-2.07,39.26-20.14,63.17-15,10,2.15,22.32,11.34,41,25.24,28.93,21.55,68.54,51.06,118.63,69.14,5.71,2.06,8.51,7.89,6.28,13.06-.4.93-39.68,95,13.76,180.07,3,4.76,1.24,10.79-3.93,13.63-2.11,1.16-53.06,28.4-168.48,30.17C189.22,1264,187.55,1264,185.9,1264Z"/><path class="cls-16" d="M390.09,1242.42c-11.63,0-25.11-2.27-40.71-7.93-5.74-2.08-8.52-8-6.21-13.15s8.82-7.69,14.57-5.61c28.06,10.18,49.95,8.28,65.05-5.64,26.39-24.33,28.65-81.77,13-114.95-20.79-44-101-22.49-101.79-22.27-5.91,1.63-12.17-1.37-14-6.7s1.5-11,7.41-12.63c4.08-1.13,100.29-27.07,129,33.67,18.8,39.82,16.21,105.89-17.58,137C428.73,1233.52,413.07,1242.42,390.09,1242.42Z"/><path class="cls-28" d="M1329.88,921.47c12.57-19.76,16.79-40.15,18.16-51.31,29.74,33.56,43,68.86,47.35,101.3C1383.23,957.87,1358.94,933.83,1329.88,921.47Z"/><path class="cls-25" d="M1078.35,1065.87c8.12,35.16,14.24,97.74-22.19,156.54-30.53,10.77-54.74,8.24-71.93-7.61-28.83-26.56-31.43-86.47-14.51-122.3C991.09,1047.25,1064.71,1062.59,1078.35,1065.87Z"/><path class="cls-29" d="M1085.34,1063.15a3.17,3.17,0,0,0-.34-1.39,213.62,213.62,0,0,0-7-23.47c50.72-19,91.85-49.62,119.26-70,15.82-11.79,28.32-21.1,34.93-22.52,18-3.86,49.93,12.38,52,13.45,3.65,2.54,85.31,60.41,89.89,137.39,0,.09,0,.16.06.24s0,.12,0,.18c6.51,32.51-14.77,96.06-15,96.7-.15.29-27.07,56.79-132.76,56.79-1.53,0-3.06,0-4.63,0-95.4-1.46-145.3-21-157.8-26.68C1100.55,1163,1093.75,1098.78,1085.34,1063.15Z"/><path class="cls-20" d="M1292.77,956.78a104,104,0,0,0,33.16-29.52c35.78,14.91,65.18,49.88,70.73,56.76,3,43.64-9.17,80.65-16.7,98.83C1369,1017.58,1309.59,969.28,1292.77,956.78Z"/><path class="cls-13" d="M1219.61,1153.58c-86.38-13-130.94-73.77-130.94-73.77-1-6-2.15-11.65-3.33-16.66a3.17,3.17,0,0,0-.34-1.39c-1-4.17-2-7.92-3-11.21,74.16-19.2,153.87-79.61,164.71-81.9s84.56,36.4,84.56,36.4l-21.47-24.6c24.9,23.32,59.43,63.89,63.9,112.43C1362.52,1122.56,1296.72,1165.22,1219.61,1153.58Z"/><path class="cls-13" d="M1221.76,1234.79c59.58,1.71,97.17-9.1,116-16.72-19.15,15.4-53.39,32.41-111.38,32.41-1.53,0-3.06,0-4.63,0-95.4-1.46-145.3-21-157.8-26.68a190.36,190.36,0,0,0,11.26-21.71C1088.17,1208.35,1143,1232.52,1221.76,1234.79Z"/><path class="cls-13" d="M1059.52,1216.75c-1.08,1.89-2.19,3.78-3.36,5.66-30.53,10.77-54.74,8.24-71.93-7.61-14.61-13.46-22.48-35.5-24.49-58.62C966.62,1179.61,991.51,1220.79,1059.52,1216.75Z"/><path class="cls-13" d="M969.89,1096.39l-3.78,5a91.76,91.76,0,0,1,3.61-8.87,47.76,47.76,0,0,1,8.43-12.38c31.63-11.13,90.47.74,103.67,3.91,3.22,21.13,4.41,47.75-1.23,76.11C1056.75,1172.77,975.56,1120.05,969.89,1096.39Z"/><path class="cls-13" d="M1340.83,934.78a176.91,176.91,0,0,1,22.68,16,169.06,169.06,0,0,1-19,56.59A274.85,274.85,0,0,0,1307.89,969h0A94.29,94.29,0,0,0,1340.83,934.78Z"/><path class="cls-13" d="M1091.29,1136.92a237.78,237.78,0,0,0-2.62-57.11S1095.59,1110.91,1091.29,1136.92Z"/><path class="cls-13" d="M1364.61,942.51a175.67,175.67,0,0,0-20.48-13.88,138.51,138.51,0,0,0,13.19-47.22q3.36,4.35,6.38,8.71A204.15,204.15,0,0,1,1364.61,942.51Z"/><g class="cls-14"><path class="cls-15" d="M959.74,1156.18c-1.64-18.91.64-38.54,6.37-54.81l3.78-5c5.67,23.66,86.86,76.38,110.7,63.75a186.48,186.48,0,0,1-21.07,56.61C991.51,1220.79,966.62,1179.61,959.74,1156.18Z"/></g><g class="cls-14"><path class="cls-16" d="M1396.66,984c3,43.64-9.17,80.65-16.7,98.83-4.88-29.11-19.4-54.83-35.49-75.51a169.06,169.06,0,0,0,19-56.59A245.65,245.65,0,0,1,1396.66,984Z"/></g><g class="cls-14"><path class="cls-16" d="M1363.7,890.12a184.84,184.84,0,0,1,31.69,81.34,241.82,241.82,0,0,0-30.78-29A204.15,204.15,0,0,0,1363.7,890.12Z"/></g><g class="cls-14"><path class="cls-16" d="M1221.76,1234.79c-78.81-2.27-133.59-26.44-146.6-32.74a199.41,199.41,0,0,0,16.13-65.13c4.3-26-2.61-57.07-2.62-57.11h0s44.56,60.72,130.94,73.77c77.11,11.64,142.91-31,154.08-60.7.11,1.23.26,2.45.33,3.69,0,.09,0,.16.06.24s0,.12,0,.18c6.51,32.51-14.77,96.06-15,96.7-.07.13-5.62,11.72-21.38,24.38C1318.93,1225.69,1281.34,1236.5,1221.76,1234.79Z"/></g><g class="cls-17"><path class="cls-18" d="M1246.7,968.65c-10.84,2.29-90.55,62.7-164.71,81.9-1.61-5.47-3.07-9.65-4-12.26,50.72-19,91.85-49.62,119.26-70,15.82-11.79,28.32-21.1,34.93-22.52,18-3.86,49.93,12.38,52,13.45a251.9,251.9,0,0,1,25.66,21.27l21.47,24.6S1257.54,966.37,1246.7,968.65Z"/></g><g class="cls-17"><path class="cls-18" d="M1329.88,921.47c12.57-19.76,16.79-40.15,18.16-51.31,3.31,3.73,6.38,7.48,9.28,11.25a138.51,138.51,0,0,1-13.19,47.22A133.61,133.61,0,0,0,1329.88,921.47Z"/></g><g class="cls-17"><path class="cls-18" d="M978.15,1080.12c27.87-29.73,88-17.19,100.2-14.25,1.26,5.44,2.46,11.53,3.47,18.16C1068.62,1080.86,1009.78,1069,978.15,1080.12Z"/></g><g class="cls-17"><path class="cls-18" d="M1076.37,1058.49l.12-.16c0,.07,0,.13,0,.19Z"/></g><g class="cls-17"><path class="cls-18" d="M1325.93,927.26a124.48,124.48,0,0,1,14.9,7.52,94.29,94.29,0,0,1-32.94,34.2h0c-6.32-5.48-11.64-9.62-15.12-12.21A104,104,0,0,0,1325.93,927.26Z"/></g><path class="cls-16" d="M1377.76,1106.5a11.83,11.83,0,0,1-2.29-.21c-5-.93-8.63-4.77-8.9-9.35-4.48-75.12-86.3-132-87.12-132.51a9.72,9.72,0,0,1-4.41-8.77,10.07,10.07,0,0,1,5.71-8.12c52.14-26.23,53-85.4,53-86a10.21,10.21,0,0,1,7.32-9.45,12,12,0,0,1,12.36,2.86c55.84,58.41,62.21,122.19,57.72,165.41-4.84,46.57-22.66,79.18-23.42,80.55A11.38,11.38,0,0,1,1377.76,1106.5ZM1305,957.39c20,16.11,59.15,52.38,76.07,100.36a221.13,221.13,0,0,0,7.89-40c4.88-48.66-7.33-92.53-36.33-130.72C1347.53,907.83,1335.13,937,1305,957.39Z"/><path class="cls-16" d="M1400.68,993.4a11.61,11.61,0,0,1-9.23-4.36c-.5-.65-32.55-41.85-71.18-56.69-5.69-2.19-8.34-8.13-5.92-13.27s9-7.53,14.7-5.34c44.77,17.2,79.38,61.91,80.83,63.8,3.52,4.59,2.25,10.89-2.84,14.07A12,12,0,0,1,1400.68,993.4Z"/><path class="cls-16" d="M1226.45,1264c-1.65,0-3.31,0-5,0-115.41-1.77-166.37-29-168.48-30.17-5.17-2.84-6.91-8.87-3.92-13.63,53.44-85,14.15-179.14,13.75-180.08-2.21-5.17.58-11,6.28-13,50.09-18.08,89.7-47.59,118.63-69.14,18.66-13.9,31-23.09,41-25.24,23.9-5.12,59.22,12.95,63.16,15,5.35,2.82,7.15,9,4,13.83s-10,6.45-15.33,3.64c-11.94-6.27-35.17-15.3-46.68-12.81-4.93,1.06-19.27,11.73-31.91,21.15-26.61,19.83-66,49.16-114.78,68.61,9,26.31,28.8,103.29-13,178.56,18.88,7.31,66.36,21.85,147.69,23.09,100.44,1.65,127.65-47.25,130.28-52.51,2-6.13,20.49-63.64,14.61-93-1.1-5.49,2.94-10.75,9-11.75s11.91,2.66,13,8.16c7.14,35.68-14.48,100.29-15.4,103q-.15.44-.33.84C1371.83,1201.18,1342.31,1264,1226.45,1264Z"/><path class="cls-16" d="M1022.27,1242.42c-23,0-38.64-8.9-48.72-18.18-33.79-31.14-36.38-97.21-17.57-137,28.68-60.73,124.88-34.8,129-33.67,5.91,1.65,9.23,7.3,7.41,12.64s-8.09,8.32-14,6.69c-1-.27-81-21.67-101.78,22.27-15.67,33.19-13.41,90.62,13,114.95,15.11,13.92,37,15.82,65,5.64,5.74-2.08,12.27.43,14.57,5.61s-.47,11.07-6.21,13.15C1047.38,1240.15,1033.88,1242.42,1022.27,1242.42Z"/><path class="cls-30" d="M3689.54,1293.44s20.87-1.64,31.74-26.5,11-49.48,7.91-68.76-13.58-32.69-18.5-37.17-11.65-6.16-15.44-6.46l.22,1.51s6.13,16.25,7.54,30.15c0,0,7.84,8,7.82,8.64l-.11,3.19.94.82s7.6,4.17,10.18,8.27l-1.69,40.95s-4.92,8.05-12.09,9.25l-1.28,1.27-2.08,5.84-6.42,5s-9.2,22.4-9.24,22.56a7.44,7.44,0,0,0,0,1C3689,1293.17,3689.54,1293.44,3689.54,1293.44Z"/><path class="cls-31" d="M3640.67,1199.42a69.37,69.37,0,0,0-3.87,20.21,95.57,95.57,0,0,0,.84,14.26c1.3,11.61,5.15,21.86,10.83,28.85,4.73,5.82,10.25,9,16.41,9.33,4.75.29,8.83-2,12.12-6.72,7.42-10.7,9.59-31.92,10.11-47.84.34-10.36.33-44.32-14-46.34C3660.6,1169.4,3646.65,1181.54,3640.67,1199.42Z"/><path class="cls-32" d="M3629.26,1215c-.37,11.26,2.43,24.36,7.86,36.9,5.28,12.16,12.53,22.77,20.44,29.87,15.18,13.62,29.2,11.31,30.39,11.08,3.54-5.59,10.26-23.26,10.33-23.44a.28.28,0,0,1,.09-.14l6.4-5.34,2.41-6.38c-1.68-.65-8.16-3.28-9-5.46-1-2.51.47-39.93,1.72-45s9.21-8.43,10.57-9l.1-3.17c-.51-.81-4.94-5.55-7.71-8.44a.41.41,0,0,1-.1-.24,138.17,138.17,0,0,0-8.16-31.7c-18.22-2.66-37.51,7.24-51.64,26.52C3634.83,1192.21,3629.58,1205.2,3629.26,1215Zm43.9-44.62c14.76,2.09,14.78,36.61,14.44,47.14-.52,16.07-2.73,37.51-10.27,48.39-3.39,4.89-7.59,7.22-12.48,6.92-6.26-.38-11.88-3.57-16.68-9.48-5.78-7.11-9.69-17.52-11-29.32-1-9.06-2.17-19.32,3.07-35,2.92-8.73,7.82-16.44,13.78-21.72S3666.88,1169.51,3673.16,1170.39Z"/><path class="cls-12" d="M3720,1248h0l0,0c.79-1,2.49-40.16,2.48-40.17h0c-.06-.07-5.24-6.29-11.76-9-.76.3-9.13,3.65-10.33,8.52-.66,2.67-1.32,13.65-1.68,23.35-.41,11-.45,20-.08,21,.67,1.77,6.68,4.36,9,5.22C3714.33,1257.08,3719.91,1248.13,3720,1248Z"/><polygon class="cls-13" points="3705.04 1163.93 3705.04 1163.93 3705.04 1163.92 3705.04 1163.93"/><path class="cls-13" d="M3725,1224.27c0,.52-.06,1-.1,1.59,0-.42.06-.66.06-.66S3724.94,1224.85,3725,1224.27Z"/><path class="cls-13" d="M3723.07,1184.28s3.43,4.6,4.79,14.12,1.5,27,1.5,27-1.28,17.42-3.25,26.79-5.69,13.61-5.69,13.61l-3.72,3.79c-.43,2-.79,3.53-1,4.46a33.67,33.67,0,0,0,7.66-9.18c3.83-7,6.62-21.29,7.46-38.14.82-16.31-.4-31.13-3.19-38.67a34.81,34.81,0,0,0-8-11.76c.27,1.23.52,2.51.74,3.82Z"/><path class="cls-13" d="M3699.49,1252.76a7,7,0,0,1-.83-1A3.44,3.44,0,0,0,3699.49,1252.76Z"/><path class="cls-13" d="M3720,1248h0l0,0c.79-1,2.88-3.88,3-5.16.24-2,2.29-25.64,1.64-29.48a11.4,11.4,0,0,0-2.19-5.53h0c-.06-.07-5.24-6.29-11.76-9-.76.3-9.13,3.65-10.33,8.52-.51,2.05-1,9-1.39,16.56l1.85.09s-.95,25.58-.85,26,6.33,6.09,6.33,6.09a1.13,1.13,0,0,1-.56.09c.72.31,1.36.56,1.84.74C3714.33,1257.08,3719.91,1248.13,3720,1248Zm-4.1-3.92c3.2-6.65,3.21-15.75,3.21-15.75s1-9-1.74-15.94a26.79,26.79,0,0,0-7.71-10.68c3.06.81,5,2.14,8.28,4.86.74.61,1.52,1.47,2.35,2.29,1.94,1.92,3.09,5.29,3,8.93l-.13,10.74-.95,9.2a16.18,16.18,0,0,1-3.39,8.78,26.79,26.79,0,0,1-2.3,2.33c-2.63,2.35-5.5,4.59-8.6,5.09A26.42,26.42,0,0,0,3715.86,1244.12Z"/><path class="cls-13" d="M3629.26,1215c-.37,11.26,2.43,24.36,7.86,36.9,5.28,12.16,12.53,22.77,20.44,29.87,15.18,13.62,29.2,11.31,30.39,11.08,3.54-5.59,10.26-23.26,10.33-23.44a.28.28,0,0,1,.09-.14l6.4-5.34,2.41-6.38c-.46-.18-1.26-.5-2.21-.91h0l-1.86,5.34-6.83,4.72-9.53,23.25c-1.35,0-3.43-1.77-3.43-1.77,2.68-4.74,7-19,7-19l-4.67-.83c9.1-16.17,9.74-44.64,9.74-44.64s1.21-28.43-6.81-45.44l4.71-.37s-3.41-14.62-5.78-19.6c0,0,3.88-.12,5.22,0l7.65,29.51,8.14,7.68.16,3.34c.81-.39,1.44-.65,1.75-.77l.1-3.17c-.51-.81-4.94-5.55-7.71-8.44a.41.41,0,0,1-.1-.24,138.17,138.17,0,0,0-8.16-31.7c-18.22-2.66-37.51,7.24-51.64,26.52C3634.83,1192.21,3629.58,1205.2,3629.26,1215Zm43.9-44.62c14.76,2.09,14.78,36.61,14.44,47.14-.52,16.07-2.73,37.51-10.27,48.39-3.39,4.89-7.59,7.22-12.48,6.92-6.26-.38-11.88-3.57-16.68-9.48-5.78-7.11-9.69-17.52-11-29.32-1-9.06-2.17-19.32,3.07-35,2.92-8.73,7.82-16.44,13.78-21.72S3666.88,1169.51,3673.16,1170.39Z"/><path class="cls-13" d="M3640.67,1199.42a69.37,69.37,0,0,0-3.87,20.21,95.57,95.57,0,0,0,.84,14.26c1.3,11.61,5.15,21.86,10.83,28.85,4.73,5.82,10.25,9,16.41,9.33,4.75.29,8.83-2,12.12-6.72,7.42-10.7,9.59-31.92,10.11-47.84.34-10.36.33-44.32-14-46.34C3660.6,1169.4,3646.65,1181.54,3640.67,1199.42Z"/><g class="cls-14"><path class="cls-15" d="M3707,1267.78c.17-.19,3.4-10.51,3.4-10.51h0a8.87,8.87,0,0,1-2.67.42l-2.53,6.73a.28.28,0,0,1-.1.15l-6.4,5.34c-.44,1.15-6.69,15.77-9.92,22.75.7-.23,2.24.24,3.87-.4,0,0,6.35-16.76,7.49-19.41S3706.8,1268,3707,1267.78Z"/></g><g class="cls-14"><path class="cls-15" d="M3712.54,1191.37c-.15-.21-6.79-5.65-7.44-8.62s-5.83-26.25-6.18-27.85c-1.52-.86-3.24,0-3.89-.36,2,6,7,21.3,8.21,31.43,7.86,8.23,7.84,8.63,7.83,8.89l-.1,3.3a22.06,22.06,0,0,1,2.34,1.15h0S3712.69,1191.58,3712.54,1191.37Z"/></g><g class="cls-14"><path class="cls-15" d="M3718.82,1246.55c1.82-2.11,1.46-5.53,1.83-9l.23-9,.62-11.39c.05-3.63.69-6.36-1.25-8.28-.83-.82-1.61-1.68-2.35-2.29-3.28-2.72-5.22-4-8.28-4.86a26.79,26.79,0,0,1,7.71,10.68c2.76,7,1.74,15.94,1.74,15.94s0,9.1-3.21,15.75a26.42,26.42,0,0,1-7.94,9.85c3.1-.5,6-2.74,8.6-5.09A26.79,26.79,0,0,0,3718.82,1246.55Z"/></g><g class="cls-14"><path class="cls-16" d="M3700.43,1187.89l-7.65-29.51c-1.34-.16-5.22,0-5.22,0,2.37,5,5.78,19.6,5.78,19.6l-2.17.17c-1.09.08-1.73,2-1.17,3.42,6.51,17.14,5.44,42.22,5.44,42.22s-.57,25.12-8.17,41.56c-.65,1.4-.14,3.33.94,3.53l2.16.38s-4.36,14.23-7,19c0,0,2.08,1.81,3.43,1.77l9.53-23.25,6.83-4.72,1.86-5.34h0c-2.56-1.13-6.18-3-6.78-4.55-1-2.51.47-39.93,1.72-45,1-4,6-6.86,8.82-8.2l-.16-3.34Z"/></g><g class="cls-17"><path class="cls-18" d="M3703.1,1280.74c.33-.73,1.21-5.23,1.39-5.42a62.12,62.12,0,0,0,5.76-5.92s-6.51,4.15-6.69,4.38-2.29,9.07-2.17,9.08A7.74,7.74,0,0,0,3703.1,1280.74Z"/></g><g class="cls-17"><path class="cls-18" d="M3707.69,1176.94c-.16-.2-.75-4.79-1-5.54a8.44,8.44,0,0,0-1.57-2.28c-.13,0,1.4,9,1.56,9.26s6.39,5,6.39,5A64.13,64.13,0,0,0,3707.69,1176.94Z"/></g><g class="cls-17"><path class="cls-18" d="M3707.82,1200.17c-2.13.69-5.3,4.52-6.8,5.57a6.71,6.71,0,0,0-.89.87l-.06.11c-.27.59-.6,4.6-.88,10.35-.14,3.22-.27,6.68-.37,9.66l0,.89c0,.52,0,1,0,1.55l-.06,1.55q0,.46,0,.9c-.09,3-.19,6.45-.26,9.66-.1,5.77,0,9.79.21,10.41a.54.54,0,0,0,0,.11,7,7,0,0,0,.83,1,29.1,29.1,0,0,0,6.26,3.41,1.13,1.13,0,0,0,.56-.09s-6.22-5.71-6.33-6.09c-.06-.22.22-8.36.47-15.47h0s.89-24.58,1.73-26.24c1.16-2.27,7.47-8.6,7.47-8.6S3708.05,1200.19,3707.82,1200.17Z"/></g><g class="cls-14"><path class="cls-15" d="M3698.4,1241.28c.07-3.21.17-6.68.26-9.66C3698.53,1235.13,3698.44,1238.42,3698.4,1241.28Z"/></g><g class="cls-17"><path class="cls-18" d="M3698.4,1241.28c.07-3.21.17-6.68.26-9.66C3698.53,1235.13,3698.44,1238.42,3698.4,1241.28Z"/></g><g class="cls-17"><path class="cls-18" d="M3662.4,1273.55s8.43,5.42,16-5.72,10.64-26,11.11-53-3.36-38.32-9.38-43.8-14.2-.7-14.2-.7,12-4.33,17.67,12.61,5,48.56-.85,69.94S3665.86,1272.91,3662.4,1273.55Z"/></g><ellipse class="cls-12" cx="3656.44" cy="1241.76" rx="5.77" ry="7.21" transform="translate(930.36 3976.72) rotate(-63.85)"/><ellipse class="cls-12" cx="3660.04" cy="1198.42" rx="5.77" ry="7.21" transform="translate(971.28 3955.72) rotate(-63.85)"/><g class="cls-17"><path class="cls-18" d="M3710.87,1258.17s10.13-5.42,10.86-8.65,2.16-43.31,2.16-43.31-3.61-4.75-8.39-6.26c0,0,6.26,7.53,6.3,8s-1.65,40.11-1.65,40.11Z"/></g><g class="cls-14"><path class="cls-16" d="M3700.77,1289s25-20.6,26.41-63.51-19.06-66-19.06-66,24.31,13.1,22.69,62.78-22.16,63.41-29.62,66.76"/></g><path class="cls-16" d="M3711.61,1194.89l-.12,3.6a1.27,1.27,0,0,1-.61,1.16c-3.42,1.27-9.17,4.58-10,8-1.29,5.24-2.42,40.72-1.78,43.62.52,1.13,4.88,3.4,8.67,4.82a1,1,0,0,1,.53.71,2,2,0,0,1-.05,1.1l-2.61,6.93a1.18,1.18,0,0,1-.32.47l-6.26,5.23c-.95,2.48-7,18.26-10.43,23.55a.73.73,0,0,1-.45.36c-.61.13-15,3.18-31.12-11.26-8-7.22-15.41-18-20.77-30.35-5.56-12.82-8.41-26.27-8-37.88.34-10.39,5.6-23.5,14.08-35.06a74.12,74.12,0,0,1,22.8-20.87c9.73-5.5,19.73-7.52,29.73-6a.82.82,0,0,1,.57.54,137,137,0,0,1,8.31,31.92c.6.63,2.14,2.25,3.66,3.88C3711.64,1193.93,3711.64,1194.06,3711.61,1194.89Zm-1.65,2.59.07-2.13c-.93-1.19-4.78-5.31-7.46-8.11a1.33,1.33,0,0,1-.32-.78,136.68,136.68,0,0,0-8-31.06c-18-2.52-37,7.3-51,26.34-8,11-13.2,23.71-13.52,33.3-.36,11.07,2.4,24,7.77,36.38,5.24,12.07,12.43,22.59,20.27,29.63,14.46,13,27.87,11.35,29.88,11,3.52-5.74,10-22.88,10.11-23.06a1.08,1.08,0,0,1,.31-.47l6.26-5.22,2-5.2c-2.65-1.06-7.78-3.37-8.62-5.56-.73-1.89-.29-15.93-.07-21.89.36-9.55,1-20.83,1.75-23.85C3700.68,1201.66,3707.73,1198.4,3710,1197.48Z"/><path class="cls-19" d="M3722.52,1210.38c-.52,16.13-1.59,37.77-1.6,38a1.78,1.78,0,0,1-.23.78c-.24.39-6,9.57-13.16,9.37-.43,0-.77-.57-.75-1.25v0c0-.67.38-1.2.8-1.19,5.81.16,10.76-6.75,11.8-8.3.17-3.44,1.21-25.07,1.66-40a29,29,0,0,0-10.54-8.08,1.38,1.38,0,0,1-.54-1.5c.12-.66.55-1.05,1-.88a30.26,30.26,0,0,1,11.43,8.92,1.57,1.57,0,0,1,.27,1C3722.59,1208.2,3722.56,1209.28,3722.52,1210.38Z"/><path class="cls-16" d="M3688.14,1217.56c-.53,16.23-2.78,37.9-10.46,49-3.5,5-7.83,7.46-12.86,7.15-6.38-.38-12.09-3.63-17-9.66-5.88-7.23-9.86-17.82-11.2-29.82h0c-1-9.19-2.2-19.6,3.13-35.51,3-8.87,7.94-16.71,14-22.07s13.07-8,19.46-7.06c6.09.86,10.42,7.06,12.86,18.42C3688.36,1198.62,3688.35,1211.08,3688.14,1217.56Zm-50,16.17c1.27,11.41,5,21.48,10.64,28.34,4.64,5.71,10.05,8.79,16.1,9.16,4.6.27,8.55-1.91,11.73-6.5,7.28-10.5,9.42-31.49,9.94-47.25.33-10.17.33-43.52-13.54-45.48-12.3-1.73-26,10.21-31.9,27.8-5.08,15.16-4,24.7-3,33.93Zm-.77.23Z"/><path class="cls-16" d="M3731.53,1225.88c-.65,20-5.5,37.13-14.49,51a38.68,38.68,0,0,1-18.71,15.29,32.76,32.76,0,0,1-10.27,2.29c-.44,0-.78-.54-.78-1.22s.36-1.23.79-1.24a36.7,36.7,0,0,0,27.89-16.86c12.19-18.8,16.5-43.78,12.8-74.24-3.3-27.18-20.24-44.75-34.05-45.45-.43,0-.76-.58-.74-1.26h0c0-.68.39-1.22.82-1.19,7.46.37,15.49,5.29,22,13.49,7.11,8.9,11.89,20.94,13.47,33.9A167.91,167.91,0,0,1,3731.53,1225.88Z"/><path class="cls-20" d="M3627.37,1169.52a2.83,2.83,0,0,0-3.37-.18c-2,1.23-3.43,4.54-3.88,6.46a10.53,10.53,0,0,0,.64,6A49.76,49.76,0,0,1,3627.37,1169.52Z"/><path class="cls-21" d="M3645.66,1271.13a48.69,48.69,0,0,1-3.85-11,78,78,0,0,1-2-20.76,92,92,0,0,1,1-10.42c2.47-16.7,9.44-36.49,16-51.4-13.58,15.07-20.88,35-24.63,49.27a166.2,166.2,0,0,0-5,28.47h0c0,.17-1.18,17.42,4.61,21.26C3637.24,1280.24,3642.51,1276.21,3645.66,1271.13Z"/><path class="cls-21" d="M3633,1181.19c6.33-.67,12.82,7.14,13.94,8.56a88.25,88.25,0,0,1,10.6-14,153.83,153.83,0,0,1,8.32-16.41c-2.22-1.32-15.27-8.18-30.95,3.46a35.33,35.33,0,0,0-6.88,6.83l-.09.11a49.35,49.35,0,0,0-6.91,12.84.53.53,0,0,1-.08.22,81.69,81.69,0,0,0-3.92,15.67C3618.93,1193.42,3624.06,1182.37,3633,1181.19Z"/><path class="cls-20" d="M3646.88,1190.29c-1.17-1.45-7.56-9-13.57-8.36-10.86,1.44-16,17.92-16.38,19.3a128.69,128.69,0,0,0-.82,21.07,56.71,56.71,0,0,0,1.8,12.25,65.68,65.68,0,0,0,9.09,19.93,170.6,170.6,0,0,1,4.95-27.92C3634.69,1216.14,3639.32,1202.69,3646.88,1190.29Z"/><path class="cls-13" d="M3622.06,1175.72c.56-1.86,2.12-5,3.05-5.4a1.72,1.72,0,0,1,1.59.12c.22-.31.44-.62.67-.92a2.83,2.83,0,0,0-3.37-.18c-2,1.23-3.43,4.54-3.88,6.46a10.53,10.53,0,0,0,.64,6c.35-.93.73-1.86,1.13-2.77A7.34,7.34,0,0,1,3622.06,1175.72Z"/><path class="cls-13" d="M3627,1251.26a46.06,46.06,0,0,1-6.19-13.18s5.11,1.25,7.92-13.12-4.07-27.13-8.31-27.34c0,0,4-11.27,13.6-12.12,4.87.24,8.94,4.48,11.15,7.17.45-.79.92-1.57,1.4-2.35-1.17-1.45-7.57-9-13.57-8.36-10.87,1.44-16,17.91-16.39,19.3a128.69,128.69,0,0,0-.82,21.07,57.34,57.34,0,0,0,1.8,12.25,66.33,66.33,0,0,0,9.09,19.93c.06-.67.16-1.78.32-3.25Z"/><path class="cls-13" d="M3632.8,1167c-7.62,7.29-12.07,22.6-12.71,24.9,2.75-4.83,7-9.93,12.9-10.71a9.16,9.16,0,0,1,4.49.77c-.31-.29-.49-.52-.41-.64s6.76-3.93,9.16-11.44,1.35-10.06,1.35-10.06,9.05-2.83,16.93,1.85c.47-.84.91-1.6,1.34-2.29a25.66,25.66,0,0,0-18.47-2.52A56.12,56.12,0,0,0,3632.8,1167Z"/><path class="cls-13" d="M3643.38,1197.15c-10.13,19.89-16.41,58.8-14.47,69.7,1.68,9.44,9.08,9.92,11.5,9.83a17.08,17.08,0,0,0,5.25-5.55c-.21-.4-.63-1.25-1.16-2.53-1.61,1.84-7.65,7.87-12.18.77-5.26-8.25,1.73-57.17,20.74-82.94,0,0-.55,1.33-1.45,3.73,1.68-4.43,3.42-8.67,5.13-12.58A94.63,94.63,0,0,0,3643.38,1197.15Z"/><g class="cls-14"><path class="cls-16" d="M3632.32,1269.37c4.53,7.1,10.57,1.07,12.18-.77a56.78,56.78,0,0,1-2.69-8.44,78,78,0,0,1-2-20.76,92,92,0,0,1,1-10.42c1.82-12.33,6.1-26.33,10.83-38.82.9-2.4,1.45-3.73,1.45-3.73C3634.05,1212.2,3627.06,1261.12,3632.32,1269.37Z"/></g><g class="cls-14"><path class="cls-16" d="M3620.44,1197.62c4.24.21,11.13,13,8.31,27.34s-7.92,13.12-7.92,13.12a46.06,46.06,0,0,0,6.19,13.18h0a176.14,176.14,0,0,1,4.63-24.67,140.83,140.83,0,0,1,13.54-33.92c-2.21-2.69-6.28-6.93-11.15-7.17C3624.42,1186.35,3620.44,1197.62,3620.44,1197.62Z"/></g><g class="cls-14"><path class="cls-16" d="M3647.58,1159.82s1.06,2.55-1.35,10.06-9.16,11.44-9.16,11.44.1.35.41.64c4.63,1.93,8.6,6.71,9.45,7.79a88.25,88.25,0,0,1,10.6-14c2.53-5.66,4.95-10.53,7-14.12C3656.63,1157,3647.58,1159.82,3647.58,1159.82Z"/></g><g class="cls-14"><path class="cls-15" d="M3625.11,1170.32c-.93.4-2.49,3.54-3.05,5.4a7.34,7.34,0,0,0-.17,3.31,48.39,48.39,0,0,1,4.81-8.59A1.72,1.72,0,0,0,3625.11,1170.32Z"/></g><g class="cls-17"><path class="cls-18" d="M3629,1264.79c-1.95-10.59,4.29-48.35,14.4-67.64a137.11,137.11,0,0,0-11.24,28.82,155.85,155.85,0,0,0-4.95,27.62h0c0,.17-1.17,16.9,4.63,20.64a7.76,7.76,0,0,0,8.66.1C3638.07,1274.43,3630.67,1274,3629,1264.79Z"/></g><g class="cls-17"><path class="cls-18" d="M3632.8,1167a56.12,56.12,0,0,1,14.58-10.14,33.47,33.47,0,0,0-12.48,6,35.33,35.33,0,0,0-6.88,6.83l-.09.11a49.35,49.35,0,0,0-6.91,12.84.53.53,0,0,1-.08.22,81.69,81.69,0,0,0-3.92,15.67,47,47,0,0,1,3.07-6.61C3620.73,1189.6,3625.18,1174.29,3632.8,1167Z"/></g><path class="cls-16" d="M3667.06,1159.27a1.7,1.7,0,0,1-.23.82c-5.71,9.14-21,42-25,69.23a80.13,80.13,0,0,0,1,30.13,46.25,46.25,0,0,0,3.84,10.87,1.75,1.75,0,0,1,0,1.66c-3.37,5.59-9.15,10.13-15.22,6.1-5.87-3.89-5.43-18.9-5.26-22.26a66.92,66.92,0,0,1-9.41-20.58,59.06,59.06,0,0,1-1.87-12.77c-.37-8.63-.1-21.54,3.26-34,3.31-12.3,8.84-21.4,16.43-27,9.17-6.81,17.4-7.35,22.69-6.6a23.26,23.26,0,0,1,9.43,3.33,1.23,1.23,0,0,1,.45.88A2.72,2.72,0,0,1,3667.06,1159.27Zm-27.76,80.11a90.09,90.09,0,0,1,1-10.58c3.68-24.89,17.31-56.61,24.64-69a24.4,24.4,0,0,0-8-2.53c-5.08-.71-13-.17-21.81,6.38-18.62,13.84-19.33,45.63-18.77,58.66a55.65,55.65,0,0,0,1.75,12,63.86,63.86,0,0,0,9.3,20.1,1.66,1.66,0,0,1,.26,1.07c0,.17-1.13,16.8,4.3,20.4,5.06,3.36,9.93-.12,13-4.73a52.1,52.1,0,0,1-3.64-10.61A79.05,79.05,0,0,1,3639.3,1239.38Z"/><path class="cls-16" d="M3658.53,1176.05a1.55,1.55,0,0,1-.35,1c-14.2,15.07-21.74,35.55-25.56,50.08a163,163,0,0,0-4.95,28.28c-.05.67-.43,1.18-.86,1.13s-.74-.64-.7-1.32a164.41,164.41,0,0,1,5-28.91c3.91-14.88,11.62-35.85,26.16-51.29.36-.38.85-.24,1.08.32A1.66,1.66,0,0,1,3658.53,1176.05Z"/><path class="cls-16" d="M3647.72,1190.3a1.69,1.69,0,0,1-.19.74c-.28.52-.77.6-1.1.17-.07-.09-7-9.09-13.39-8.41-10.94,1.45-15.9,18.71-15.94,18.88-.18.63-.64.92-1,.66a1.53,1.53,0,0,1-.4-1.61,45.76,45.76,0,0,1,4.11-9.58c3.68-6.41,8.24-10.15,13.18-10.8,7-.75,14.18,8.56,14.48,9A1.61,1.61,0,0,1,3647.72,1190.3Z"/><path class="cls-16" d="M3628.61,1169.48a1.91,1.91,0,0,1-.1.53c-.21.6-.69.83-1.06.51a2.6,2.6,0,0,0-3.27-.4c-1.85,1.13-3.14,4.18-3.55,6a9.84,9.84,0,0,0,.77,5.7,1.77,1.77,0,0,1-.14,1.73c-.34.42-.83.34-1.1-.19a13.2,13.2,0,0,1-1-8c.62-2.64,2.29-6.1,4.48-7.44a3.66,3.66,0,0,1,4.57.52A1.46,1.46,0,0,1,3628.61,1169.48Z"/><path class="cls-20" d="M3662,1226.21l.61-8.38c.1-1.27.95-2.06,1.68-1.53a7.15,7.15,0,0,1,3.09,6.49,5.71,5.71,0,0,1-4,5.42C3662.6,1228.49,3661.89,1227.47,3662,1226.21Z"/><g class="cls-33"><ellipse class="cls-20" cx="3656.44" cy="1241.68" rx="17.31" ry="25.46" transform="translate(-2.48 7.32) rotate(-0.11)"/></g><g class="cls-34"><ellipse class="cls-20" cx="3659.42" cy="1198.39" rx="17.31" ry="25.46" transform="translate(-2.39 7.33) rotate(-0.11)"/></g><path class="cls-20" d="M3671.58,1201.26l-1.6,49.17c-.17,5.15,2.35,9.47,5.62,9.63L3714,1262c3.27.16,6.06-3.9,6.23-9.06l1.6-49.16c.17-5.15-2.35-9.47-5.62-9.63l-38.44-1.89C3674.54,1192.05,3671.75,1196.11,3671.58,1201.26Z"/><path class="cls-13" d="M3671.58,1201.26l-.8,24.58,1.89.1c.07-2,1.16-3.61,2.45-3.55l.19,0,.05-1.74c.06-1.56.9-2.79,1.89-2.74s1.75,1.35,1.7,2.91l-.35,10.79c0,1.56-.9,2.79-1.88,2.74s-1.76-1.36-1.71-2.92l.06-1.74h-.19c-1.28-.06-2.27-1.76-2.21-3.77l-.75,23.08a10.05,10.05,0,0,0,2.81,7.56c.24,0,15,3.33,15,3.33l.78.88L3714,1262c3.27.16,6.06-3.9,6.23-9.06l1.6-49.16c.17-5.15-2.35-9.47-5.62-9.63l-38.44-1.89C3674.54,1192.05,3671.75,1196.11,3671.58,1201.26Zm47.24,26.94-.8,24.68a6.19,6.19,0,0,1-3.87,5.31l-27.37-1.34c4.58-2.42,17.63-2.74,21.13-5.1s3.71-8.79,3.71-8.79l.5-15.09Z"/><path class="cls-13" d="M3675.3,1228.84a.21.21,0,0,1,.22.09.56.56,0,0,1,.09.33l-.08,2.22c0,1.11.51,2,1.21,2.07s1.31-.84,1.34-2l.35-10.78c0-1.11-.5-2-1.21-2.07s-1.3.84-1.34,1.94l-.07,2.23a.45.45,0,0,1-.11.31.18.18,0,0,1-.22.07,1.38,1.38,0,0,0-.39-.09c-1,0-1.85,1.18-1.9,2.75s.72,2.88,1.71,2.93A1.1,1.1,0,0,0,3675.3,1228.84Z"/><g class="cls-14"><path class="cls-16" d="M3709.48,1203.66c3.34,2.71,3.13,9.13,3.13,9.13l-.49,15.08-.5,15.09s-.21,6.42-3.71,8.79-16.55,2.68-21.13,5.1l27.37,1.34a6.19,6.19,0,0,0,3.87-5.31l.8-24.68.81-24.67c.12-3.91-3.51-5.68-3.51-5.68l-27.37-1.35C3693.16,1199.37,3706.14,1201,3709.48,1203.66Z"/></g><g class="cls-17"><path class="cls-18" d="M3671.58,1201.26l-.8,24.58-.8,24.59c-.17,5.15,2.35,9.47,5.62,9.63l14.92.73-.78-.88s-14.77-3.32-15-3.33a10.05,10.05,0,0,1-2.81-7.56l.75-23.08.76-23.09c.14-4.55,3.05-7.27,3.29-7.25s15.18-1.85,15.18-1.85l.83-.81-14.92-.73C3674.54,1192.05,3671.75,1196.11,3671.58,1201.26Z"/></g><path class="cls-25" d="M3678,1227.34l.24-7.26s-1.28-1.23-1.79-.31a14.13,14.13,0,0,0-.8,3.18c-.12.35-1.75,1.11-1.88,2.65s.06,2.12.21,2.32a7.1,7.1,0,0,0,1.12.77s.37,2.46.48,2.79a2.94,2.94,0,0,0,1.26,1,2.36,2.36,0,0,0,.61-.49,10.42,10.42,0,0,0,.45-1.42Z"/><path class="cls-16" d="M3722.91,1203.78l-1.6,49.17c-.2,6-3.48,10.82-7.33,10.64l-38.43-1.89c-3.84-.19-6.81-5.27-6.61-11.33l1.6-49.16c.2-6.06,3.48-10.83,7.33-10.64l38.43,1.89C3720.14,1192.65,3723.11,1197.73,3722.91,1203.78Zm-52.41,46.67c-.16,4.7,2.15,8.64,5.13,8.79l38.43,1.89c3,.14,5.54-3.56,5.69-8.26l1.6-49.17c.15-4.7-2.15-8.64-5.13-8.79l-38.43-1.88c-3-.15-5.54,3.56-5.69,8.26Z"/><path class="cls-16" d="M3678.91,1221.86l-.28,8.75c-.06,1.76-1,3.15-2.13,3.09s-2-1.53-1.92-3.29l0-.56c-1.15-.37-2-2-1.92-3.91s1-3.46,2.17-3.72v-.56c.06-1.76,1-3.14,2.13-3.09S3679,1220.1,3678.91,1221.86Zm-2.77,8.63c0,.4.18.74.44.75s.47-.3.49-.71l.28-8.75c0-.4-.18-.74-.44-.75s-.47.31-.49.71l-.06,1.8a1.57,1.57,0,0,1-.32,1,.57.57,0,0,1-.67.2.65.65,0,0,0-.19,0c-.49,0-.91.59-.94,1.36s.36,1.43.85,1.46l.2,0a.6.6,0,0,1,.65.27,1.65,1.65,0,0,1,.26,1Z"/><path class="cls-35" d="M3683.31,1292.19a8,8,0,0,1-4,1.8c2.48,3.39,5.16,5,7.64,5.58A23.52,23.52,0,0,1,3683.31,1292.19Z"/><path class="cls-25" d="M3695.35,1265.14a11.91,11.91,0,0,0,12.15-1.84c.94-3.31.83-6-.33-7.92-1.94-3.27-6.56-3.78-9.38-2.06C3694.22,1255.49,3695.14,1263.63,3695.35,1265.14Z"/><path class="cls-36" d="M3695.11,1265.89a.14.14,0,0,1-.1,0,13.37,13.37,0,0,1-1.79-.86,59.61,59.61,0,0,1-5.83,12.82,18.36,18.36,0,0,0-1.86,3.75c-.36,2,.78,5.52.85,5.75.19.41,4.36,9.59,10.28,10.39h0c2.48.84,7.46-1.25,7.51-1.27s4.48-2.76,4.86-14.36c0-.16,0-.33,0-.5.23-10.48-1.1-16-1.49-17.42A12.28,12.28,0,0,1,3695.11,1265.89Z"/><path class="cls-20" d="M3686.17,1288.25a10.88,10.88,0,0,1-2.4,3.53,23.14,23.14,0,0,0,4.13,8,12.91,12.91,0,0,0,7.68-1.45C3690.58,1296.85,3687.07,1290.14,3686.17,1288.25Z"/><path class="cls-13" d="M3701.61,1281c-.7-9.53-5.22-14.65-5.22-14.65-.47-.13-.89-.28-1.28-.43a.14.14,0,0,1-.1,0c-.32-.12-.61-.25-.86-.37-1.74,8.06-6.69,16.58-6.9,17.76s2.5,9.42,2.5,9.42l-1.82-2.45c1.71,2.82,4.72,6.76,8.44,7.43C3698.7,1296.53,3702.23,1289.47,3701.61,1281Z"/><path class="cls-13" d="M3707.86,1281.51a43.76,43.76,0,0,1-1.7,12.66c1.26-2,2.69-5.73,2.9-12.1,0-.16,0-.33,0-.5.23-10.48-1.1-16-1.49-17.42a13.22,13.22,0,0,1-1.72,1.15A56.11,56.11,0,0,1,3707.86,1281.51Z"/><path class="cls-13" d="M3707.05,1263.64l.45-.34c.94-3.31.83-6-.33-7.92a6.28,6.28,0,0,0-4.43-2.91C3704.52,1253.31,3707.61,1256.2,3707.05,1263.64Z"/><path class="cls-13" d="M3698.09,1253.35l.4-.39a7.67,7.67,0,0,0-.7.36,3.73,3.73,0,0,0-1,.88c-1,3.43-.27,9.93-.07,11.39a12.15,12.15,0,0,0,5.87.15C3703.67,1263.17,3699.89,1254.07,3698.09,1253.35Z"/><path class="cls-13" d="M3684.3,1293.44a20.79,20.79,0,0,0,1.15,2.55,10.56,10.56,0,0,0,4.43-1.87,28.51,28.51,0,0,1-2.83-4.16h0A9,9,0,0,1,3684.3,1293.44Z"/><path class="cls-13" d="M3700.78,1266.83a13,13,0,0,1-4.39-.51A9.78,9.78,0,0,0,3700.78,1266.83Z"/><path class="cls-13" d="M3684.81,1296.08a21.21,21.21,0,0,1-1-2.3,8.32,8.32,0,0,1-3.69,1.27c.22.26.44.5.65.73A11,11,0,0,0,3684.81,1296.08Z"/><g class="cls-14"><path class="cls-15" d="M3702.74,1252.47a7.37,7.37,0,0,0-4.25.49l-.4.39c1.8.72,5.58,9.82,4.52,12.39a11.77,11.77,0,0,0,4.44-2.1C3707.61,1256.2,3704.52,1253.31,3702.74,1252.47Z"/></g><g class="cls-14"><path class="cls-16" d="M3687.9,1299.75a12.91,12.91,0,0,0,7.68-1.45,12.43,12.43,0,0,1-5.7-4.18,10.56,10.56,0,0,1-4.43,1.87A24.34,24.34,0,0,0,3687.9,1299.75Z"/></g><g class="cls-14"><path class="cls-16" d="M3680.77,1295.78a12.54,12.54,0,0,0,6.16,3.79,26.54,26.54,0,0,1-2.12-3.49A11,11,0,0,1,3680.77,1295.78Z"/></g><g class="cls-14"><path class="cls-16" d="M3707.86,1281.51a56.11,56.11,0,0,0-2-16.21,11.58,11.58,0,0,1-5.08,1.53,9.78,9.78,0,0,1-4.39-.51h0s4.52,5.12,5.22,14.65c.62,8.5-2.91,15.56-5.24,16.67l.29.06h0c2.48.84,7.46-1.25,7.51-1.27a7.16,7.16,0,0,0,2-2.26A43.76,43.76,0,0,0,3707.86,1281.51Z"/></g><g class="cls-17"><path class="cls-18" d="M3687.25,1283.24c.21-1.18,5.16-9.7,6.9-17.76-.41-.2-.73-.37-.93-.49a59.61,59.61,0,0,1-5.83,12.82,18.36,18.36,0,0,0-1.86,3.75c-.36,2,.78,5.52.85,5.75a31.48,31.48,0,0,0,1.55,2.9l1.82,2.45S3687,1284.42,3687.25,1283.24Z"/></g><g class="cls-17"><path class="cls-18" d="M3683.31,1292.19a8,8,0,0,1-4,1.8c.27.37.55.73.83,1.06a8.32,8.32,0,0,0,3.69-1.27C3683.63,1293.27,3683.45,1292.74,3683.31,1292.19Z"/></g><g class="cls-17"><path class="cls-18" d="M3696.81,1254.2c-2.4,2.94-1.65,9.59-1.46,10.94a14.26,14.26,0,0,0,1.39.45C3696.54,1264.13,3695.83,1257.63,3696.81,1254.2Z"/></g><g class="cls-17"><path class="cls-18" d="M3694.79,1264.89l0,0h0Z"/></g><g class="cls-17"><path class="cls-18" d="M3683.77,1291.78c.15.57.33,1.12.53,1.66a9,9,0,0,0,2.75-3.48h0c-.4-.72-.7-1.32-.88-1.71A10.88,10.88,0,0,1,3683.77,1291.78Z"/></g><path class="cls-16" d="M3697.41,1298.14a1.37,1.37,0,0,1-.47,1.08,14,14,0,0,1-6.29,2.27c-3.35.32-8.25-.62-12.55-7a1.73,1.73,0,0,1-.18-1.37c.13-.48.43-.78.76-.77h0s4.61.13,6.82-5.49a.83.83,0,0,1,.64-.6.74.74,0,0,1,.67.52c0,.09,4.13,9.28,9.9,10.06.36,0,.64.46.69,1A2.18,2.18,0,0,1,3697.41,1298.14Zm-16.84-3.58c2.85,3.32,6.19,4.83,10,4.48a12.59,12.59,0,0,0,3.11-.72c-3.64-2-6.3-6.47-7.47-8.72A9.36,9.36,0,0,1,3680.57,1294.56Zm-1.89-2.17Z"/><path class="cls-16" d="M3688.61,1300.23a1.63,1.63,0,0,1-.17.69c-.26.55-.75.66-1.09.26a24.38,24.38,0,0,1-4.63-9.11,1.53,1.53,0,0,1,.46-1.59c.41-.25.86.06,1,.7a22.3,22.3,0,0,0,4.12,8A1.58,1.58,0,0,1,3688.61,1300.23Z"/><path class="cls-16" d="M3710.1,1282.14c-.42,12.71-5.37,15.71-5.58,15.83l-.07,0c-.21.09-5.27,2.22-8,1.3-.42-.14-.68-.8-.58-1.46s.52-1.09.94-.95c2.24.76,6.75-1.05,7.23-1.25s4.15-3,4.5-13.59c0-.17,0-.33,0-.51.19-8.92-.76-14.18-1.25-16.29a12.78,12.78,0,0,1-13.82.76,62.66,62.66,0,0,1-5.7,12.33,21.21,21.21,0,0,0-1.75,3.42,14.15,14.15,0,0,0,.82,5.17,1.66,1.66,0,0,1-.33,1.67c-.39.32-.86.1-1.05-.49-.15-.44-1.42-4.39-.94-7a16.69,16.69,0,0,1,2.1-4.4,57.07,57.07,0,0,0,5.75-12.76c.18-.61.64-.9,1-.63.07,0,7.19,4.71,13.94-.83.38-.31.84-.1,1,.48.08.24,2,5.93,1.72,18.6C3710.11,1281.77,3710.1,1282,3710.1,1282.14Z"/><path class="cls-16" d="M3709.16,1259.65a18,18,0,0,1-.75,4.44c-.18.62-.65.9-1,.63a1.56,1.56,0,0,1-.38-1.62c.89-3,.82-5.45-.2-7.16-1.78-3-6.21-3.45-8.82-1.86-3.47,2.12-2.1,11-2.08,11.09a1.44,1.44,0,0,1-.57,1.51c-.42.17-.84-.21-1-.86-.07-.46-1.73-11.11,3.06-14,3.14-1.91,8.23-1.38,10.51,2.45A9.68,9.68,0,0,1,3709.16,1259.65Z"/><path class="cls-37" d="M3687.77,1155.32a8.22,8.22,0,0,0-3.89-2.18c2.69-3.14,5.46-4.46,8-4.81A22.35,22.35,0,0,0,3687.77,1155.32Z"/><path class="cls-25" d="M3698,1183.47a12.07,12.07,0,0,1,12,3c.72,3.39.44,6-.84,7.86-2.15,3.06-6.78,3.12-9.49,1.13C3696.26,1193,3697.71,1185,3698,1183.47Z"/><path class="cls-38" d="M3697.82,1182.69a.19.19,0,0,0-.1,0,12.86,12.86,0,0,0-1.84.69,61.81,61.81,0,0,0-5-13.35,18.77,18.77,0,0,1-1.61-3.92c-.23-2,1.14-5.43,1.23-5.65.2-.39,5-9.13,10.91-9.35h0c2.53-.59,7.35,2,7.4,2s4.28,3.19,3.91,14.78c0,.17,0,.34,0,.51-.46,10.46-2.14,15.86-2.63,17.21A12.45,12.45,0,0,0,3697.82,1182.69Z"/><path class="cls-20" d="M3690.36,1159.53a11.13,11.13,0,0,0-2.16-3.75,22.44,22.44,0,0,1,4.63-7.55,13.21,13.21,0,0,1,7.57,2.21C3695.32,1151.39,3691.39,1157.73,3690.36,1159.53Z"/><path class="cls-13" d="M3705.28,1168.3c-1.32,9.43-6.16,14.09-6.16,14.09-.47.09-.91.19-1.3.3a.19.19,0,0,0-.1,0l-.88.29c-1.22-8.21-5.59-17.18-5.73-18.38s3.11-9.14,3.11-9.14l-2,2.26c1.89-2.64,5.14-6.28,8.9-6.58C3703.4,1152.5,3706.45,1159.89,3705.28,1168.3Z"/><path class="cls-13" d="M3711.55,1168.37a44.33,44.33,0,0,0-.87-12.78c1.11,2.16,2.3,6,2.1,12.34,0,.17,0,.34,0,.51-.46,10.46-2.14,15.86-2.63,17.21a14.74,14.74,0,0,0-1.63-1.32A55.36,55.36,0,0,0,3711.55,1168.37Z"/><path class="cls-13" d="M3709.58,1186.11q.21.18.42.39c.72,3.39.44,6-.84,7.86a6,6,0,0,1-4.61,2.46C3706.38,1196.16,3709.65,1193.58,3709.58,1186.11Z"/><path class="cls-13" d="M3700,1195.48l.37.44a6,6,0,0,1-.68-.43,4.24,4.24,0,0,1-.92-1c-.75-3.52.38-9.93.67-11.36a12,12,0,0,1,5.87.42C3706.18,1186.24,3701.82,1195,3700,1195.48Z"/><path class="cls-13" d="M3688.84,1154.17a21.15,21.15,0,0,1,1.31-2.42,10.88,10.88,0,0,1,4.3,2.3,26.32,26.32,0,0,0-3.09,3.87h0A9.62,9.62,0,0,0,3688.84,1154.17Z"/><path class="cls-13" d="M3703.54,1182.32a12.92,12.92,0,0,0-4.42.07A9.73,9.73,0,0,1,3703.54,1182.32Z"/><path class="cls-13" d="M3689.52,1151.59a21.57,21.57,0,0,0-1.15,2.2,8.43,8.43,0,0,0-3.59-1.63c.23-.23.46-.46.69-.67A11.42,11.42,0,0,1,3689.52,1151.59Z"/><g class="cls-14"><path class="cls-15" d="M3704.55,1196.82a7.56,7.56,0,0,1-4.2-.9l-.37-.44c1.84-.53,6.2-9.24,5.31-11.9a12.32,12.32,0,0,1,4.29,2.53C3709.65,1193.58,3706.38,1196.16,3704.55,1196.82Z"/></g><g class="cls-14"><path class="cls-16" d="M3692.83,1148.23a13.21,13.21,0,0,1,7.57,2.21,11.8,11.8,0,0,0-6,3.61,10.88,10.88,0,0,0-4.3-2.3A24.78,24.78,0,0,1,3692.83,1148.23Z"/></g><g class="cls-14"><path class="cls-16" d="M3685.47,1151.49a11.9,11.9,0,0,1,6.39-3.16,24.53,24.53,0,0,0-2.34,3.26A11.42,11.42,0,0,0,3685.47,1151.49Z"/></g><g class="cls-14"><path class="cls-16" d="M3711.55,1168.37a55.36,55.36,0,0,1-3.05,16,12,12,0,0,0-5-2,9.73,9.73,0,0,0-4.42.07h0s4.84-4.66,6.16-14.09c1.17-8.41-1.88-15.8-4.13-17.13l.28,0h0c2.53-.59,7.35,2,7.4,2a7.54,7.54,0,0,1,1.81,2.44A44.33,44.33,0,0,1,3711.55,1168.37Z"/></g><g class="cls-17"><path class="cls-18" d="M3691.11,1164.63c.14,1.2,4.51,10.17,5.73,18.38-.43.16-.75.3-1,.4a61.81,61.81,0,0,0-5-13.35,18.77,18.77,0,0,1-1.61-3.92c-.23-2,1.14-5.43,1.23-5.65a24.9,24.9,0,0,1,1.73-2.74l2-2.26S3691,1163.43,3691.11,1164.63Z"/></g><g class="cls-17"><path class="cls-18" d="M3687.77,1155.32a8.22,8.22,0,0,0-3.89-2.18c.3-.35.6-.67.9-1a8.43,8.43,0,0,1,3.59,1.63Q3688,1154.53,3687.77,1155.32Z"/></g><g class="cls-17"><path class="cls-18" d="M3698.75,1194.52c-2.19-3.17-1-9.72-.74-11a11.89,11.89,0,0,1,1.41-.31C3699.13,1184.59,3698,1191,3698.75,1194.52Z"/></g><g class="cls-17"><path class="cls-18" d="M3697.43,1183.66v0h0Z"/></g><g class="cls-17"><path class="cls-18" d="M3688.2,1155.78c.19-.55.4-1.09.64-1.61a9.62,9.62,0,0,1,2.52,3.75h0c-.45.67-.79,1.24-1,1.61A11.13,11.13,0,0,0,3688.2,1155.78Z"/></g><path class="cls-16" d="M3702.21,1150.77a2,2,0,0,1,0,.25c-.09.54-.4.93-.75.94-5.81.21-10.49,9-10.54,9.06a.7.7,0,0,1-.69.45.85.85,0,0,1-.6-.66c-1.84-5.82-6.4-6.14-6.45-6.14-.32,0-.6-.35-.7-.84a1.71,1.71,0,0,1,.27-1.35c4.7-5.9,9.64-6.36,13-5.7a14.49,14.49,0,0,1,6.13,2.87A1.43,1.43,0,0,1,3702.21,1150.77Zm-11.76,7.42c1.32-2.13,4.25-6.29,8-8a12.83,12.83,0,0,0-3.05-1c-3.74-.72-7.16.45-10.21,3.49A9.77,9.77,0,0,1,3690.45,1158.19Z"/><path class="cls-16" d="M3693.57,1147.83a1.45,1.45,0,0,1-.37,1,21.49,21.49,0,0,0-4.62,7.6c-.19.62-.66.88-1,.6a1.57,1.57,0,0,1-.36-1.63,23.48,23.48,0,0,1,5.21-8.63c.37-.37.85-.21,1.08.36A1.89,1.89,0,0,1,3693.57,1147.83Z"/><path class="cls-16" d="M3713.82,1168c0,.18,0,.36,0,.55-.55,12.65-2.84,18.14-2.93,18.37-.24.56-.71.72-1.07.38a12.06,12.06,0,0,0-13.84-2.19c-.41.22-.84-.11-1-.74a59.18,59.18,0,0,0-4.91-13.28,17.28,17.28,0,0,1-1.8-4.59c-.31-2.64,1.21-6.45,1.38-6.87.24-.58.72-.75,1.08-.39a1.65,1.65,0,0,1,.23,1.69,13.81,13.81,0,0,0-1.16,5.07,22.28,22.28,0,0,0,1.52,3.59,63.59,63.59,0,0,1,4.88,12.85,12.86,12.86,0,0,1,13.73,2.11c.63-2,1.92-7.2,2.31-16.12.48-11-3.19-14.19-3.59-14.49s-4.83-2.49-7.12-2c-.43.1-.82-.36-.87-1s.25-1.3.67-1.4c2.78-.65,7.69,2,7.9,2.08l.06,0C3709.49,1151.78,3714.23,1155.26,3713.82,1168Z"/><path class="cls-16" d="M3711.43,1190.29a9.61,9.61,0,0,1-1.58,5.28c-2.52,3.59-7.63,3.62-10.63,1.41-4.58-3.38-2.24-13.84-2.14-14.28.15-.64.6-1,1-.77a1.46,1.46,0,0,1,.47,1.56c0,.11-2,8.81,1.35,11.26,2.51,1.84,6.94,1.81,8.91-1,1.13-1.61,1.36-4,.67-7.12a1.53,1.53,0,0,1,.49-1.58c.4-.23.85.1,1,.74A18.31,18.31,0,0,1,3711.43,1190.29Z"/><rect class="cls-39" x="1807.1" y="590.21" width="169.55" height="653.73"/><path class="cls-39" d="M1906.51,981.47a8.72,8.72,0,0,1-6.82-3.59c-3.81-4.83-3.88-12.8-.15-17.76.19-.25,17.73-23.94,17-52-.39-15.14-6.18-29.35-17.24-42.17-4-4.66-4.33-12.6-.73-17.78s9.73-5.56,13.71-1c15.2,17.68,23.14,37.95,23.68,60.28.92,38.88-21.62,69-22.57,70.22a8.72,8.72,0,0,1-6.9,3.72Z"/><path class="cls-39" d="M1952.25,700.67c0,43.35-27.13,78.46-60.62,78.46s-60.54-35.11-60.54-78.46a94.43,94.43,0,0,1,9.29-41.55C1851,637,1870,622.3,1891.63,622.3c22.13,0,41.54,15.34,52.07,38.33A95.8,95.8,0,0,1,1952.25,700.67Z"/><path class="cls-39" d="M1891.63,634.9c-17.64,0-33.71,11.55-43,30.88a79.58,79.58,0,0,0-7.83,34.91c0,36.34,22.8,65.89,50.82,65.89s50.9-29.55,50.9-65.89a80.79,80.79,0,0,0-7.17-33.57c-9.13-19.9-25.86-32.19-43.73-32.19Zm0,156.8c-38.74,0-70.25-40.84-70.25-91a110.33,110.33,0,0,1,10.8-48.26c12.8-26.69,35-42.66,59.47-42.66,24.69,0,47.83,17,60.4,44.47a111.35,111.35,0,0,1,9.93,46.45c0,50.19-31.55,91-70.33,91Z"/><path class="cls-39" d="M1930.74,735.19c0,23.07-14.44,41.75-32.25,41.75s-32.25-18.68-32.25-41.75,14.43-41.74,32.25-41.74S1930.74,712.13,1930.74,735.19Z"/><path class="cls-39" d="M1952.25,1128c0,43.35-27.13,78.46-60.62,78.46s-60.54-35.11-60.54-78.46a94.46,94.46,0,0,1,9.29-41.55c10.61-22.1,29.61-36.82,51.25-36.82,22.13,0,41.54,15.35,52.07,38.33A95.87,95.87,0,0,1,1952.25,1128Z"/><path class="cls-39" d="M1891.63,1062.2c-17.64,0-33.71,11.54-43,30.88a79.45,79.45,0,0,0-7.83,34.91c0,36.34,22.8,65.89,50.82,65.89s50.9-29.55,50.9-65.89a80.8,80.8,0,0,0-7.17-33.58C1926.23,1074.52,1909.5,1062.2,1891.63,1062.2Zm0,156.82c-38.74,0-70.25-40.84-70.25-91a109.9,109.9,0,0,1,10.82-48.26c12.78-26.68,35-42.68,59.45-42.68,24.69,0,47.85,17,60.4,44.49A111.35,111.35,0,0,1,1962,1128c0,50.19-31.55,91-70.33,91Z"/><path class="cls-39" d="M1928.29,1091.8c0,23.06-14.43,41.75-32.25,41.75s-32.25-18.69-32.25-41.75,14.43-41.75,32.25-41.75S1928.29,1068.74,1928.29,1091.8Z"/><path class="cls-39" d="M2395.13,696.7c-3.57-.05-7,2.42-8.77,6.83L2338.86,824a15.58,15.58,0,0,0,1.34,14l-27,69.54-26.55-66.73c4.67-3.2,6.51-10.67,4.09-16.79l-47.48-120.48c-2.43-6.19-8.3-8.6-13.08-5.49a2.43,2.43,0,0,0-.25.2l-43-108.06H2034.27V1244h152.66V963.61A61.27,61.27,0,0,0,2210.31,952l55.93,135.73c9,21.88,26.62,35.56,45.79,35.56s36.88-13.76,45.87-35.76L2413,952.79a60.81,60.81,0,0,0,23.53,11.13v280h152.66V590.21H2436.51Z"/><path class="cls-20" d="M3047.47,813.57a111.64,111.64,0,0,0-9.9-46.45c-7.08-15.46-17.52-27.63-29.71-35.3L2976.21,590.2H2932c11.25-31.25,26.84-97.08-20-140.76,0,0-8.39,94.41-77.67,140.76h-81.19l-29.79,139.6c-13.07,7.13-24.32,19.34-32.09,35.51a110.37,110.37,0,0,0-10.78,48.26c0,20.06,5,38.61,13.55,53.67l-80.37,376.69h165.16l21.3-125.41h130.67l19.08,125.41h172.5l-85.43-382.34A110.9,110.9,0,0,0,3047.47,813.57Z"/><path class="cls-39" d="M3427.47,1084.32q-11.74,3.78-29.36,3.8-32.31,0-57.62-22.81t-39.27-62.24q-14-39.42-13.95-88.85,0-76,30.84-123.05t87.35-47q43.29,0,93.21,26.61l48.46-147.27a243.59,243.59,0,0,0-26-16,106.8,106.8,0,0,0-4.36-12.54C3507.8,573.58,3493,558,3475,551.13s-37-4.3-53.53,7.29a76.58,76.58,0,0,0-17.78,17.79c-3.8-.15-7.61-.24-11.44-.24a237.93,237.93,0,0,0-75.7,11.89,66.11,66.11,0,0,0-23.4-15.66c-37-14.18-76.37,13.33-87.39,61.46a116.18,116.18,0,0,0-2.5,34.78q-26.31,32.19-44.8,73.79-34.16,77-34.16,169.15,0,96,33.77,175.79t93.23,125.89h0q59.46,46.14,133.59,46.1,86.61,0,169.57-49.42V912.33l-127,19Z"/><rect class="cls-20" x="3753.82" y="1101.47" width="481.97" height="160.49"/><path class="cls-39" d="M3719,958.67c-10.55-9.4-16.1-19.77-16.47-30.86-.46-20.71,16.08-37.79,16.24-38a9.13,9.13,0,0,0-.13-13,9.33,9.33,0,0,0-13.09.11c-.89.9-21.58,22-21.58,49.66,0,.53,0,1.12,0,1.67.5,16.31,8.08,31.15,22.58,44.08a9.33,9.33,0,0,0,13.11-.7,9.08,9.08,0,0,0,2.38-6.14h0A9.2,9.2,0,0,0,3719,958.67Z"/><path class="cls-39" d="M3726.67,704c-38.53-46.92-1.87-98.94-.3-101.15a9.12,9.12,0,0,0-2.13-12.82,9.32,9.32,0,0,0-12.92,2.1c-.47.64-46.6,65.52,1,123.47a9.3,9.3,0,0,0,13,1.32,9.12,9.12,0,0,0,3.43-7.13h0A9,9,0,0,0,3726.67,704Z"/><path class="cls-39" d="M3753.81,1046.94h482V923.27H3985l250.78-191.8v-139H3836.15a67.47,67.47,0,0,0-75-.54l-.78.54h-6.56v5.07a66.87,66.87,0,0,0-22.56,53.11,65.8,65.8,0,0,0,22.56,46.55v19.66H3996.2L3812.46,852.65c-.1.07-.18.15-.27.22a66.95,66.95,0,0,0-80.94,68.39,65.7,65.7,0,0,0,22.56,46.53v79.14Z"/><path class="cls-39" d="M4752.4,590.21H4397.86V854.06c-31.75,6.64-56.09,42.37-56.09,85.31s24.34,78.68,56.09,85.32V1244H4752.4V1099.52h-78.54c-53.92,0-97.63-56.58-97.63-126.37H4737l-83.45-191.37a115.15,115.15,0,0,0-5.79-47.14H4752.4Z"/></g></g></svg>